<?xml version="1.0" encoding="UTF-8" standalone="no"?>
<!-- Created with Inkscape (http://www.inkscape.org/) -->

<svg
   xmlns:dc="http://purl.org/dc/elements/1.1/"
   xmlns:cc="http://creativecommons.org/ns#"
   xmlns:rdf="http://www.w3.org/1999/02/22-rdf-syntax-ns#"
   xmlns:svg="http://www.w3.org/2000/svg"
   xmlns="http://www.w3.org/2000/svg"
   xmlns:sodipodi="http://sodipodi.sourceforge.net/DTD/sodipodi-0.dtd"
   xmlns:inkscape="http://www.inkscape.org/namespaces/inkscape"
   width="311.75314"
   height="425.49228"
   id="svg2"
   version="1.1"
   inkscape:version="0.48.3.1 r9886"
   sodipodi:docname="pikamouse.svg">
  <defs
     id="defs4" />
  <sodipodi:namedview
     id="base"
     pagecolor="#ffffff"
     bordercolor="#666666"
     borderopacity="1.0"
     inkscape:pageopacity="0.0"
     inkscape:pageshadow="2"
     inkscape:zoom="0.98994949"
     inkscape:cx="110.2695"
     inkscape:cy="235.0369"
     inkscape:document-units="px"
     inkscape:current-layer="g3014"
     showgrid="false"
     inkscape:window-width="1158"
     inkscape:window-height="687"
     inkscape:window-x="1"
     inkscape:window-y="53"
     inkscape:window-maximized="0"
     fit-margin-top="0"
     fit-margin-left="0"
     fit-margin-right="0"
     fit-margin-bottom="0" />
  <metadata
     id="metadata7">
    <rdf:RDF>
      <cc:Work
         rdf:about="">
        <dc:format>image/svg+xml</dc:format>
        <dc:type
           rdf:resource="http://purl.org/dc/dcmitype/StillImage" />
        <dc:title />
      </cc:Work>
    </rdf:RDF>
  </metadata>
  <g
     inkscape:label="Layer 1"
     inkscape:groupmode="layer"
     id="layer1"
     transform="translate(-255.99924,-485.57615)">
    <g
       id="g3014"
       transform="matrix(1.25,0,0,1.25,-10.357143,43.0765)">
      <g
         id="g3435"
         style="stroke:#ffffff">
        <path
           style="fill:none;stroke:#ffffff;stroke-width:2.25999998999999985;stroke-linecap:round;stroke-linejoin:round;stroke-miterlimit:10;stroke-opacity:1;stroke-dasharray:none"
           d="m 237.16,355.66 c -2.35732,-1.57787 2.2878,0.78477 2.24,2.45 1.5257,4.94214 0.87442,10.29932 0.61,15.4 l 0.21,-0.26 0.15,-0.4"
           id="path3018"
           inkscape:connector-curvature="0" />
        <path
           style="fill:none;stroke:#ffffff;stroke-width:2.25999998999999985;stroke-linecap:round;stroke-linejoin:round;stroke-miterlimit:10;stroke-opacity:1;stroke-dasharray:none"
           d="m 250.98,371.98 c -2.33131,-0.34646 1.44699,-5.93374 2.76921,-7.78532 1.11553,-1.72495 2.66348,-3.8254 4.63079,-4.51468"
           id="path3020"
           inkscape:connector-curvature="0" />
        <path
           style="fill:none;stroke:#ffffff;stroke-width:2.25999998999999985;stroke-linecap:round;stroke-linejoin:round;stroke-miterlimit:10;stroke-opacity:1;stroke-dasharray:none"
           d="m 217.93,370.75 c -2.21134,-1.16904 4.81173,-1.15235 5.87,0.66 2.95979,1.92457 6.97307,2.82177 9.02,5.86"
           id="path3022"
           inkscape:connector-curvature="0" />
        <path
           style="fill:none;stroke:#ffffff;stroke-width:2.25999998999999985;stroke-linecap:round;stroke-linejoin:round;stroke-miterlimit:10;stroke-opacity:1;stroke-dasharray:none"
           d="m 214.26,393.68 c 3.9795,-4.52607 10.66739,-7.40718 16.52,-9.5 0.72741,0.0578 1.49095,-0.11147 2.2,0.09"
           id="path3024"
           inkscape:connector-curvature="0" />
        <path
           style="fill:none;stroke:#ffffff;stroke-width:2.25999998999999985;stroke-linecap:round;stroke-linejoin:round;stroke-miterlimit:10;stroke-opacity:1;stroke-dasharray:none"
           d="m 251.74,441.84 c -4.77733,-4.19885 -7.98313,-9.75119 -11.11,-15.18 -1.28751,-1.97139 -1.75098,-3.09183 -2.14,-4.28 -0.42489,0.39898 -2.47673,-3.35657 -3.83,-4.64 -1.88555,-3.85495 -5.46493,-6.85233 -4.64,-11.6 -0.0962,-0.48132 0.21742,-4.84338 -0.1,-6.86 0.0224,-5.23291 -0.33155,-11.57222 4.18,-14.75 3.60642,-0.46889 6.32196,-1.60086 8.92,-3.41 6.76036,-2.62706 13.48705,-5.89149 18.98,-10.37 7.13062,-2.21615 14.78396,-3.1953 21.93,-5.38 8.5787,-1.07248 17.31341,-3.98671 26.11,-2.06 5.21666,2.25996 11.57993,2.35303 17.03,4.34 7.47991,0.93448 14.47853,4.08983 21.17,7.35"
           id="path3026"
           inkscape:connector-curvature="0" />
        <path
           style="fill:none;stroke:#ffffff;stroke-width:2.25999998999999985;stroke-linecap:round;stroke-linejoin:round;stroke-miterlimit:10;stroke-opacity:1;stroke-dasharray:none"
           d="m 344.41,375.83 c 6.56795,-2.82223 12.41155,-7.39781 19.64,-8.18 4.78239,-2.2959 10.94379,-2.14903 16.01,-1.05 3.19331,3.53291 8.15569,8.57648 5.05,13.47 l -0.2,-0.35 0,-0.31"
           id="path3028"
           inkscape:connector-curvature="0" />
        <path
           style="fill:none;stroke:#ffffff;stroke-width:2.25999998999999985;stroke-linecap:round;stroke-linejoin:round;stroke-miterlimit:10;stroke-opacity:1;stroke-dasharray:none"
           d="m 352.42,380.55 c 0.98899,-1.42437 3.42399,-0.13947 5.25,-1.44 8.24896,0.48875 16.06358,-2.40659 24.23,-1.75 -0.4424,1.59197 2.7688,-0.12321 3.98,1.75 4.24109,3.84932 2.38787,10.54537 0.2,15.05 -3.22488,6.22163 -7.5644,11.6387 -12.85,16.01 -5.76227,6.47087 -13.06993,11.4172 -21.47,13.65 -1.05637,1.66442 -4.6886,0.37675 -6.79,1.84 -3.48628,0.84252 -9.48062,1.37632 -10.86,-2.58"
           id="path3030"
           inkscape:connector-curvature="0" />
        <path
           style="fill:none;stroke:#ffffff;stroke-width:2.25999998999999985;stroke-linecap:round;stroke-linejoin:round;stroke-miterlimit:10;stroke-opacity:1;stroke-dasharray:none"
           d="m 349.61,389.34 c -1.31447,0.58606 3.19945,-0.86626 4.29,-1.22 6.13639,-2.17847 12.65512,-2.7125 19.12,-3.33"
           id="path3032"
           inkscape:connector-curvature="0" />
        <path
           style="fill:none;stroke:#ffffff;stroke-width:2.25999998999999985;stroke-linecap:round;stroke-linejoin:round;stroke-miterlimit:10;stroke-opacity:1;stroke-dasharray:none"
           d="m 347.12,389.39 c 9.10714,-0.18438 18.39999,-0.0553 27.18,2.32 l 0.2,-0.18"
           id="path3034"
           inkscape:connector-curvature="0" />
        <path
           style="fill:none;stroke:#ffffff;stroke-width:2.25999998999999985;stroke-linecap:round;stroke-linejoin:round;stroke-miterlimit:10;stroke-opacity:1;stroke-dasharray:none"
           d="m 348.8,390 c 6.39413,-0.92113 12.37312,1.73603 16.78,6.17 1.48784,0.60412 4.18005,2.87112 4.23,3.28"
           id="path3036"
           inkscape:connector-curvature="0" />
        <path
           style="fill:none;stroke:#ffffff;stroke-width:2.25999998999999985;stroke-linecap:round;stroke-linejoin:round;stroke-miterlimit:10;stroke-opacity:1;stroke-dasharray:none"
           d="m 349.41,392.89 c 6.25987,-0.6917 14.20637,2.69884 15.76,9.23 0.1455,0.38971 -0.35984,2.64699 0.41,1.88"
           id="path3038"
           inkscape:connector-curvature="0" />
        <path
           style="fill:none;stroke:#ffffff;stroke-width:2.25999998999999985;stroke-linecap:round;stroke-linejoin:round;stroke-miterlimit:10;stroke-opacity:1;stroke-dasharray:none"
           d="m 351.96,394.46 c 0.11602,-0.0841 2.97133,2.68023 3.83,4.07 1.92846,1.93333 2.32906,4.37754 2.09,7"
           id="path3040"
           inkscape:connector-curvature="0" />
        <path
           style="fill:none;stroke:#ffffff;stroke-width:2.25999998999999985;stroke-linecap:round;stroke-linejoin:round;stroke-miterlimit:10;stroke-opacity:1;stroke-dasharray:none"
           d="m 350.58,401.11 c -0.13953,-0.29718 3.30334,0.50557 -0.35,-1 -1.03025,-1.44311 3.50105,-0.15677 3.77,1.48 0.61784,0.32769 1.90714,3.96062 1.84,2.59"
           id="path3042"
           inkscape:connector-curvature="0" />
        <path
           style="fill:none;stroke:#ffffff;stroke-width:2.25999998999999985;stroke-linecap:round;stroke-linejoin:round;stroke-miterlimit:10;stroke-opacity:1;stroke-dasharray:none"
           d="m 349.82,406.41 c -1.53594,-0.17511 3.43565,1.06234 4.64,0.22 1.23032,-0.81042 2.39401,-1.85132 2.86,-3.29"
           id="path3044"
           inkscape:connector-curvature="0" />
        <path
           style="fill:none;stroke:#ffffff;stroke-width:2.25999998999999985;stroke-linecap:round;stroke-linejoin:round;stroke-miterlimit:10;stroke-opacity:1;stroke-dasharray:none"
           d="m 347.52,412.09 c -0.77012,0.6743 4.0648,-0.87188 5,-2.1 1.68788,-1.54493 3.6798,-3.22361 4.74,-5.2"
           id="path3046"
           inkscape:connector-curvature="0" />
        <path
           style="fill:none;stroke:#ffffff;stroke-width:2.25999998999999985;stroke-linecap:round;stroke-linejoin:round;stroke-miterlimit:10;stroke-opacity:1;stroke-dasharray:none"
           d="m 247.41,399.54 c -5.83697,1.93325 -4.54082,11.31951 -1.17,15.09"
           id="path3048"
           inkscape:connector-curvature="0" />
        <path
           style="fill:none;stroke:#ffffff;stroke-width:2.25999998999999985;stroke-linecap:round;stroke-linejoin:round;stroke-miterlimit:10;stroke-opacity:1;stroke-dasharray:none"
           d="m 250.42,398.49 c -0.61282,-0.36783 3.16783,1.35828 4.08,2.32 6.3067,4.75277 8.93255,15.66348 6.12,22.83"
           id="path3050"
           inkscape:connector-curvature="0" />
        <path
           style="fill:none;stroke:#ffffff;stroke-width:2.25999998999999985;stroke-linecap:round;stroke-linejoin:round;stroke-miterlimit:10;stroke-opacity:1;stroke-dasharray:none"
           d="m 258.38,394.59 c 3.53833,-0.57322 8.02704,0.91831 11.78,1.67 4.08618,0.72913 8.08238,1.65075 12.13,2.53 0.37711,1.86644 3.43141,-0.16272 5.1,1.45 9.12362,3.3787 18.53599,6.56245 26.83,12.2 l 0.25,0.27"
           id="path3052"
           inkscape:connector-curvature="0" />
        <path
           style="fill:none;stroke:#ffffff;stroke-width:2.25999998999999985;stroke-linecap:round;stroke-linejoin:round;stroke-miterlimit:10;stroke-opacity:1;stroke-dasharray:none"
           d="m 272.76,380.99 c -2.37976,0.0631 2.09951,-0.11425 3.31,-1.53 5.02483,-1.15485 11.79073,-4.60273 16.22,-0.44 0.83769,1.0639 1.83962,2.16475 2.7,3.28"
           id="path3054"
           inkscape:connector-curvature="0" />
        <path
           style="fill:none;stroke:#ffffff;stroke-width:2.25999998999999985;stroke-linecap:round;stroke-linejoin:round;stroke-miterlimit:10;stroke-opacity:1;stroke-dasharray:none"
           d="m 274.08,381.64 c 1.63048,-0.86901 3.82258,2.15869 4.7,3.85 3.28439,4.46639 10.30628,2.53688 14.17,-0.61 1.30395,-0.7584 2.51319,-1.70592 3.27,-3.06"
           id="path3056"
           inkscape:connector-curvature="0" />
        <path
           style="fill:none;stroke:#ffffff;stroke-width:2.25999998999999985;stroke-linecap:round;stroke-linejoin:round;stroke-miterlimit:10;stroke-opacity:1;stroke-dasharray:none"
           d="m 231.04,388.99 c 0.23353,1.48803 2.27771,5.52128 5.25,4.86"
           id="path3058"
           inkscape:connector-curvature="0" />
        <path
           style="fill:none;stroke:#ffffff;stroke-width:2.25999998999999985;stroke-linecap:round;stroke-linejoin:round;stroke-miterlimit:10;stroke-opacity:1;stroke-dasharray:none"
           d="m 230.53,400.19 c 0.97405,-1.37469 5.32905,-3.23927 6.63,-5.77 0.31067,-0.3747 0.0784,-0.91781 0.15,-1.36"
           id="path3060"
           inkscape:connector-curvature="0" />
        <path
           style="fill:none;stroke:#ffffff;stroke-width:2.25999998999999985;stroke-linecap:round;stroke-linejoin:round;stroke-miterlimit:10;stroke-opacity:1;stroke-dasharray:none"
           d="m 229.92,398.44 c -1.9958,2.8526 -1.81592,8.69719 0.3,10.59 -2.13856,-2.73269 -3.30359,-8.69531 0.11,-10.59 -4.16791,2.01541 -2.06668,7.38026 0,10.24"
           id="path3062"
           inkscape:connector-curvature="0" />
        <path
           style="fill:none;stroke:#ffffff;stroke-width:2.25999998999999985;stroke-linecap:round;stroke-linejoin:round;stroke-miterlimit:10;stroke-opacity:1;stroke-dasharray:none"
           d="m 335.59,425.61 c -0.11888,0.73022 4.23406,1.09877 5.92,1.45 3.69949,0.59241 7.27716,0.36883 11.22,-0.92 4.12923,-0.97991 10.44022,-1.95748 15.19,-3.37"
           id="path3064"
           inkscape:connector-curvature="0" />
        <path
           style="fill:none;stroke:#ffffff;stroke-width:2.25999998999999985;stroke-linecap:round;stroke-linejoin:round;stroke-miterlimit:10;stroke-opacity:1;stroke-dasharray:none"
           d="m 366.95,419.01 c 0.35677,3.04471 3.81716,7.46923 7.14,8.09"
           id="path3066"
           inkscape:connector-curvature="0" />
        <path
           style="fill:none;stroke:#ffffff;stroke-width:2.25999998999999985;stroke-linecap:round;stroke-linejoin:round;stroke-miterlimit:10;stroke-opacity:1;stroke-dasharray:none"
           d="m 342.07,433.31 c -0.41754,-0.15997 3.98572,-0.58206 5.55,-0.96 5.10866,-1.64343 10.63383,-1.11397 15.71,-2.97 6.24212,-0.68207 12.21898,0.0161 18.21,-0.4 4.3175,0.40789 8.59914,2.53787 12.55,4.81 6.34357,3.12949 12.48178,6.6582 18.76,10.11 7.02562,2.39895 10.78907,9.1851 15.3,14.44 4.35315,8.84189 11.66337,16.04025 16.27,24.76 1.49715,3.12641 4.35944,5.80474 5.66,8.97 4.60533,5.22042 5.01881,12.53845 8.52,18.42 1.68944,2.62964 3.11098,5.72713 2.7,9.05"
           id="path3068"
           inkscape:connector-curvature="0" />
        <path
           style="fill:none;stroke:#ffffff;stroke-width:2.25999998999999985;stroke-linecap:round;stroke-linejoin:round;stroke-miterlimit:10;stroke-opacity:1;stroke-dasharray:none"
           d="m 267.61,565.43 c -0.91653,-4.3597 -6.12338,-7.47199 -6.53,-12.42 -3.30447,-5.39213 -3.91018,-11.90092 -5.92,-17.94 -0.36759,-0.7964 -1.92486,-4.2994 -1.89,-4.37 -0.57847,-5.85217 -3.48044,-11.24433 -3.21,-17.28 -2.62943,-10.29304 -2.26867,-21.39692 -1.83,-32.07 0.32897,-8.34428 1.86274,-16.40524 3.36,-24.63 1.42616,-3.52317 1.88301,-7.71385 4.29,-10.68"
           id="path3070"
           inkscape:connector-curvature="0" />
        <path
           style="fill:none;stroke:#ffffff;stroke-width:2.25999998999999985;stroke-linecap:round;stroke-linejoin:round;stroke-miterlimit:10;stroke-opacity:1;stroke-dasharray:none"
           d="m 252.2,443.72 0.1,0"
           id="path3072"
           inkscape:connector-curvature="0" />
        <path
           style="fill:none;stroke:#ffffff;stroke-width:2.25999998999999985;stroke-linecap:round;stroke-linejoin:round;stroke-miterlimit:10;stroke-opacity:1;stroke-dasharray:none"
           d="m 251.59,442.94 c -1.58918,-3.76928 1.53283,0.34565 3.16,1 7.29408,3.83337 15.90957,2.34925 23.72,4.2 4.99728,1.04299 9.36848,2.58311 14.48,2.98 5.31669,1.791 10.46152,4.56635 14.49,8.53 3.69703,2.87144 6.14639,7.29407 5.86,12.25 0.42583,4.87532 -2.4259,9.50086 -4.64,13.61 -3.98812,3.27672 -7.54586,7.48199 -12.65,8.75 -1.63947,0.88159 -4.03019,0.83873 -5.81,1.66 -5.48641,1.82795 -12.74095,2.78614 -17.65,-1.4 -1.7495,-1.26679 -4.16145,-2.80313 -4.59,-3.98 -1.59955,-2.01953 -2.50402,-5.50856 -2.55,-5.34 -1.13405,-4.19179 -0.67522,-8.5559 2.2,-12.03 1.33509,-1.98421 2.24551,-2.99251 4.33,-5.03 1.76848,-0.74439 5.95614,-3.62211 9.18,-2.32 2.98032,0.64667 4.3969,1.86773 6.43,3.45 3.37129,2.92572 0.10751,8.79268 -3.57,9.02 l -0.16,-0.22 -0.1,-0.26"
           id="path3074"
           inkscape:connector-curvature="0" />
        <path
           style="fill:none;stroke:#ffffff;stroke-width:2.25999998999999985;stroke-linecap:round;stroke-linejoin:round;stroke-miterlimit:10;stroke-opacity:1;stroke-dasharray:none"
           d="m 295.61,530.44 c -0.22975,-2.28696 -3.57529,1.97102 -4.7,2.93 -4.18449,4.29403 -9.10781,8.05445 -12.49,12.95 -2.7221,5.72265 -7.34221,10.37362 -10.15,16.18 -3.43814,4.56337 -4.04574,10.42634 -6.83,15.4 -1.82649,4.74494 -4.08031,9.81092 -5,14.53 -1.4938,8.28263 -3.19213,16.42851 -3.17,24.98 -1.58906,9.03041 0.66308,18.18475 4.09,26.47 3.39501,5.17003 7.40721,10.02688 9.84,15.79 4.15207,5.63297 8.04266,10.49972 13.11,15.36 6.89805,6.31493 15.61627,10.13225 23.96,14.13 0.64062,-0.1249 1.60262,0.46954 1.99,-0.27"
           id="path3076"
           inkscape:connector-curvature="0" />
        <path
           style="fill:none;stroke:#ffffff;stroke-width:2.25999998999999985;stroke-linecap:round;stroke-linejoin:round;stroke-miterlimit:10;stroke-opacity:1;stroke-dasharray:none"
           d="m 307.49,520.29 c 0.27965,0.442 2.4698,-3.15105 3.72,-4.07 1.86041,-1.22639 1.01116,-2.40505 -1.38,-2.28 -2.57017,-0.36282 -2.17786,-4.35976 -2.09,-4.64 1.83095,-3.75776 6.47601,-4.67765 10.25,-3.76 1.58488,1.85162 1.3808,3.44286 1.43,4.42 -1.36145,5.51339 -7.73443,6.78314 -11.58,9.93 -0.46305,-0.15003 -0.0348,-0.71223 -0.2,-1"
           id="path3078"
           inkscape:connector-curvature="0" />
        <path
           style="fill:none;stroke:#ffffff;stroke-width:2.25999998999999985;stroke-linecap:round;stroke-linejoin:round;stroke-miterlimit:10;stroke-opacity:1;stroke-dasharray:none"
           d="m 280.56,673.58 c 2.63599,3.67236 8.97033,1.40519 9.59,-2.93 3.75294,-11.80479 5.85243,-24.23074 8.11,-36.31 0.47389,-4.67609 1.29078,-8.46318 2.96,-12.29 0.23846,-0.93144 1.36217,-5.34686 1.47,-7.75 0.79459,-9.33094 5.32678,-17.86395 8.42,-26.9 3.81682,-7.30051 6.27752,-15.13329 10,-22.32 2.9184,-5.20579 6.47859,-9.38645 8.87,-14.96 6.53486,-11.13211 14.7169,-20.38656 22.59,-30.84 1.90208,-2.28644 2.70873,-2.5137 4.24,-4.9 4.25388,-5.17269 9.94191,-9.38173 13.36,-15.23"
           id="path3080"
           inkscape:connector-curvature="0" />
        <path
           style="fill:none;stroke:#ffffff;stroke-width:2.25999998999999985;stroke-linecap:round;stroke-linejoin:round;stroke-miterlimit:10;stroke-opacity:1;stroke-dasharray:none"
           d="m 371.39,498.41 c -4.197,2.46046 -4.57534,8.24619 -8.26,11.51 -5.49504,5.80077 -8.89779,13.05017 -12.95,19.82 -7.66566,8.64465 -9.85441,20.60248 -16.22,30.09 -3.94792,6.1496 -5.82246,13.26622 -8.47,20 -1.56116,5.37782 -4.05442,10.71473 -5.2,16.4 -1.83487,4.43891 -3.25705,9.08367 -3.72,13.79"
           id="path3082"
           inkscape:connector-curvature="0" />
        <path
           style="fill:none;stroke:#ffffff;stroke-width:2.25999998999999985;stroke-linecap:round;stroke-linejoin:round;stroke-miterlimit:10;stroke-opacity:1;stroke-dasharray:none"
           d="m 316.46,611.33 c -1.20276,1.54931 2.57697,-1.82797 3.52,-2.41 3.2961,-2.35696 6.13033,-6.75207 8.88,-8.27 5.10184,-3.16457 9.95155,-7.37033 15.65,-9.4 7.40912,-2.37172 15.68414,1.644 22.95,-1.84 -4.19212,5.82585 -11.7243,7.61017 -18.66,8.05 -3.29142,0.53853 -5.31182,2.23397 -8.21,3.32 -5.24212,3.32701 -10.31307,8.41504 -13.47,14.13 -1.21274,1.23998 -2.81211,4.29626 -3.52,4.38 -1.93864,1.31782 -4.34624,3.58739 -5.61,5.91"
           id="path3084"
           inkscape:connector-curvature="0" />
        <path
           style="fill:none;stroke:#ffffff;stroke-width:2.25999998999999985;stroke-linecap:round;stroke-linejoin:round;stroke-miterlimit:10;stroke-opacity:1;stroke-dasharray:none"
           d="m 317.99,626.51 c 1.20555,6.88388 3.29297,13.95442 6.38,20.12 1.85378,5.4439 6.07259,9.79707 7.55,15.49 2.79959,4.58036 7.04339,8.20657 11.06,11.55 5.03969,2.31374 8.66587,7.10905 14.34,7.74 6.75754,2.05447 14.33134,1.91535 20.6,-1.44 3.78053,-2.32772 8.9609,-2.36122 12.55,-4.86"
           id="path3086"
           inkscape:connector-curvature="0" />
        <path
           style="fill:none;stroke:#ffffff;stroke-width:2.25999998999999985;stroke-linecap:round;stroke-linejoin:round;stroke-miterlimit:10;stroke-opacity:1;stroke-dasharray:none"
           d="m 389.9,675.77 c -0.0779,-3.98891 1.48562,-8.03792 1.48,-11.51 2.34104,-8.9993 2.62665,-18.49234 3.47,-27.73 1.23882,-6.57024 1.63433,-13.32971 1.94,-20.13 1.3596,-6.48881 0.98714,-13.28147 3.01,-19.55 1.95039,-12.32754 5.45276,-24.54364 13.1,-34.92 1.37327,-2.54336 3.36267,-4.91273 4.6,-6.34 0.32887,-0.58677 2.48761,-2.41287 0.86,-1.14"
           id="path3088"
           inkscape:connector-curvature="0" />
        <path
           style="fill:none;stroke:#ffffff;stroke-width:2.25999998999999985;stroke-linecap:round;stroke-linejoin:round;stroke-miterlimit:10;stroke-opacity:1;stroke-dasharray:none"
           d="m 418.11,554.85 c 3.00118,0.41935 5.16015,4.50085 7.09,6.78 3.85193,5.51037 5.40529,12.30289 7.39,18.64 1.80826,4.89153 2.21575,10.33663 3.57,15.48 2.10622,10.24361 3.65493,20.63216 6.58,30.67 0.0147,3.83987 1.5424,7.55036 0.71,11.42"
           id="path3090"
           inkscape:connector-curvature="0" />
        <path
           style="fill:none;stroke:#ffffff;stroke-width:2.25999998999999985;stroke-linecap:round;stroke-linejoin:round;stroke-miterlimit:10;stroke-opacity:1;stroke-dasharray:none"
           d="m 444.27,638.89 c 1.16627,-1.34485 -1.30504,2.32015 -2.24,2.84 -2.75306,2.48352 -6.09614,4.32139 -8.57,7.13 -0.34203,-0.60728 -0.9664,0.84729 -0.72,-0.21"
           id="path3092"
           inkscape:connector-curvature="0" />
        <path
           style="fill:none;stroke:#ffffff;stroke-width:2.25999998999999985;stroke-linecap:round;stroke-linejoin:round;stroke-miterlimit:10;stroke-opacity:1;stroke-dasharray:none"
           d="m 308.05,687.98 c 0.2907,0.47999 -0.72526,-3.25707 -1.58,-4.38 -1.93557,-6.29376 -4.39701,-12.59953 -3.37,-19.47 1.17588,-9.7859 2.3862,-19.39339 4.95,-28.7 0.18792,-1.22877 0.55141,-2.44534 1.02,-3.63"
           id="path3094"
           inkscape:connector-curvature="0" />
        <path
           style="fill:none;stroke:#ffffff;stroke-width:2.25999998999999985;stroke-linecap:round;stroke-linejoin:round;stroke-miterlimit:10;stroke-opacity:1;stroke-dasharray:none"
           d="m 311.01,632.72 c -0.21896,-3.6685 0.49178,2.76375 0.97,4.03 1.95529,9.08495 6.07976,17.57436 9.89,25.9 3.10586,5.10176 6.34958,10.23431 10.35,14.96 3.82215,6.86312 11.06344,11.22793 17.14,15.44 6.08516,0.20681 12.95409,0.66685 19.07,-1.22 4.72328,-2.10713 8.78091,-5.02047 13.52,-7.49 7.27506,-1.18577 13.03918,-6.12395 19.74,-8.48 1.44917,-0.14797 3.36891,-1.12117 3.41,-2.8"
           id="path3096"
           inkscape:connector-curvature="0" />
        <path
           style="fill:none;stroke:#ffffff;stroke-width:2.25999998999999985;stroke-linecap:round;stroke-linejoin:round;stroke-miterlimit:10;stroke-opacity:1;stroke-dasharray:none"
           d="m 406.17,673.58 c -2.13455,-0.30999 -3.9137,-5.7141 -4.79,-6.56 -1.61734,-4.65732 -3.25068,-9.3491 -3.06,-14.48 0.71333,-8.72573 1.24036,-17.5085 3.67,-25.9 0.055,-1.0876 0.3502,-2.16604 0.26,-3.28"
           id="path3098"
           inkscape:connector-curvature="0" />
        <path
           style="fill:none;stroke:#ffffff;stroke-width:2.25999998999999985;stroke-linecap:round;stroke-linejoin:round;stroke-miterlimit:10;stroke-opacity:1;stroke-dasharray:none"
           d="m 403.62,624.67 c 3.72178,-4.819 8.6983,-8.81827 12.19,-13.87 4.99167,-4.31879 7.84155,-9.95856 12.24,-14.57"
           id="path3100"
           inkscape:connector-curvature="0" />
        <path
           style="fill:none;stroke:#ffffff;stroke-width:2.25999998999999985;stroke-linecap:round;stroke-linejoin:round;stroke-miterlimit:10;stroke-opacity:1;stroke-dasharray:none"
           d="m 429.48,595.32 c 0.37584,1.52185 2.08165,5.50051 2.04,8.26 1.63493,9.22028 2.79961,18.64998 4.34,27.92 0.3451,6.41539 -1.61443,13.2135 -4.54,18.28 l -0.36,0"
           id="path3102"
           inkscape:connector-curvature="0" />
        <path
           style="fill:none;stroke:#ffffff;stroke-width:2.25999998999999985;stroke-linecap:round;stroke-linejoin:round;stroke-miterlimit:10;stroke-opacity:1;stroke-dasharray:none"
           d="m 403.42,612.33 c -0.51554,0.39869 0.24764,-3.87828 0,-5.33 0.0444,-2.8657 0.42701,-6.33587 0.81,-7.88 2.29305,-7.97166 4.77522,-16.25499 7.6,-23.89 2.15187,-2.33802 2.7556,-9.28865 7.09,-7.21 4.17581,2.80449 4.08982,8.84588 7.35,12.42 0.35127,1.24192 0.96323,1.731 1.37,2.98"
           id="path3104"
           inkscape:connector-curvature="0" />
        <path
           style="fill:none;stroke:#ffffff;stroke-width:2.25999998999999985;stroke-linecap:round;stroke-linejoin:round;stroke-miterlimit:10;stroke-opacity:1;stroke-dasharray:none"
           d="m 428.21,583.63 c -4.12223,4.55679 -7.12788,10.18787 -11.94,14.14 -5.2116,3.49945 -7.70112,8.6452 -11.52,13.64 -0.0104,0.29177 -0.23919,0.53853 -0.16,0.84"
           id="path3106"
           inkscape:connector-curvature="0" />
        <path
           style="fill:none;stroke:#ffffff;stroke-width:2.25999998999999985;stroke-linecap:round;stroke-linejoin:round;stroke-miterlimit:10;stroke-opacity:1;stroke-dasharray:none"
           d="m 255.47,601.35 c 2.71732,4.53351 10.74971,4.73789 14.64,2.02 2.80428,-1.77637 5.73801,-4.59413 6.22,-7.75"
           id="path3108"
           inkscape:connector-curvature="0" />
        <path
           style="fill:none;stroke:#ffffff;stroke-width:2.25999998999999985;stroke-linecap:round;stroke-linejoin:round;stroke-miterlimit:10;stroke-opacity:1;stroke-dasharray:none"
           d="m 277.09,592.43 c 0.0592,4.50039 -6.72631,3.78046 -7.09,-0.31 -1.14985,-4.50476 -2.06667,-9.1146 0.05,-13.47 1.35492,-5.41379 3.72068,-10.52064 6.02,-15.53 5.01385,-9.08355 11.03423,-17.75181 16.78,-26.25 1.07252,-1.27098 3.62885,-5.54215 3.67,-8.53 l -0.25,0 -0.36,0"
           id="path3110"
           inkscape:connector-curvature="0" />
        <path
           style="fill:none;stroke:#ffffff;stroke-width:2.25999998999999985;stroke-linecap:round;stroke-linejoin:round;stroke-miterlimit:10;stroke-opacity:1;stroke-dasharray:none"
           d="m 259.45,548.02 c -1.63301,-4.66598 2.52802,-9.71331 5.56,-13.43 0.60238,-0.92581 0.9746,-2.14154 1.98,-2.67"
           id="path3112"
           inkscape:connector-curvature="0" />
        <path
           style="fill:none;stroke:#ffffff;stroke-width:2.25999998999999985;stroke-linecap:round;stroke-linejoin:round;stroke-miterlimit:10;stroke-opacity:1;stroke-dasharray:none"
           d="m 267.91,530.65 c -5.00441,-4.21428 -6.43651,-11.24174 -8.57,-17.1 -1.22397,-12.37282 -3.28268,-25.39402 -0.71,-37.8 1.62319,-7.47934 6.3878,-13.9626 12.19,-18.81 4.85,-3.08778 11.31324,-3.94663 16.73,-1.4 6.29589,1.51306 13.87298,2.9625 18.05,8.57 3.6893,5.0037 1.89638,11.99767 -1.07,17.06 -3.23046,7.26082 -12.31143,9.3666 -19.74,9.28 -3.18571,0.008 -5.57506,0.47671 -8.31,-1.88 -0.72006,0.0584 -1.14027,-2.18945 -1.89,-3.76 -1.40455,-4.24146 -1.34677,-9.97719 3.22,-12.17 2.63996,-1.98285 8.19152,-1.03477 6.42,3.2 0.13091,0.63812 -1.28228,2.27888 -0.61,0.7"
           id="path3114"
           inkscape:connector-curvature="0" />
        <path
           style="fill:none;stroke:#ffffff;stroke-width:2.25999998999999985;stroke-linecap:round;stroke-linejoin:round;stroke-miterlimit:10;stroke-opacity:1;stroke-dasharray:none"
           d="m 233.8,394.72 c -2.71851,1.6045 -1.38316,-0.53106 -0.97,-0.57 -1.25108,4.17861 -0.27387,-2.28841 -0.51,0.83 0.002,2.62015 -0.87884,0.71299 0.36,1.32 2.88249,-1.43756 -1.17287,-3.10955 -0.2,-3.85 1.27908,1.33176 6.19653,2.28716 4.69,0.61"
           id="path3116"
           inkscape:connector-curvature="0" />
        <path
           style="fill:none;stroke:#ffffff;stroke-width:2.25999998999999985;stroke-linecap:round;stroke-linejoin:round;stroke-miterlimit:10;stroke-opacity:1;stroke-dasharray:none"
           d="m 279.35,380.28 c -2.27448,-0.442 3.37141,4.80687 0.66,1.93 -1.33535,-1.42852 -4.14066,-2.72037 -1.33,-0.48 -0.14297,-2.29611 3.28095,1.7615 1.84,-0.83 -0.10461,2.02253 5.53593,0.29375 4.28,-1.32 -0.51666,1.95565 -2.95467,2.51674 -0.81,4.03 -2.59884,0.79628 -1.87666,-0.17999 0.71,0.7 2.9433,-1.19453 -1.42388,-3.013 0.26,-3.59 1.88914,1.83809 -3.07577,5.02989 -0.26,2.23 1.78436,-0.73597 0.8203,-6.0455 2.24,-2.58 -0.1028,3.69504 -0.895,-0.47098 0.51,2.41 -2.36025,2.48262 -0.53816,-4.54006 0.62,-0.57 0.18936,3.82759 -2.65549,0.0932 -1.43,-1.84 0.7585,-2.6801 4.82757,2.85922 2.75,-0.09 -0.64399,-2.97074 2.17521,3.84774 -0.51,0.83 -2.0968,-2.83165 0.54893,-0.27756 1.68,1.05 2.77231,2.28098 -3.828,0.90659 -0.2,0.57 0.17921,1.73539 -5.24207,1.55753 -5.46,1.4 1.45089,0.56694 4.91157,0.99531 4.9,-0.35 -1.99012,2.09922 -7.70355,2.82379 -8.01,0.44 1.59174,1.78746 2.29618,2.71009 -0.25,0.61 -2.03759,-2.50267 -1.20279,-0.41079 1.07,-0.08 2.99836,1.36239 6.1068,0.31081 7.9,-2.19 -3.00841,-2.15176 0.97755,-0.003 0.67,1.09 2.48422,-1.02948 -2.96428,-4.55689 -0.21,-1.62 0.41086,1.32433 5.16513,3.03534 2.04,1.45 -1.05853,-1.1897 -2.84836,-3.44806 -3.36,-3.81 1.56021,0.93359 5.18275,3.24999 1.78,4.73 -0.55509,1.09039 -5.02856,3.46525 -4.23,1.53"
           id="path3118"
           inkscape:connector-curvature="0" />
        <path
           style="fill:none;stroke:#ffffff;stroke-width:2.25999998999999985;stroke-linecap:round;stroke-linejoin:round;stroke-miterlimit:10;stroke-opacity:1;stroke-dasharray:none"
           d="m 353.91,403.73 c -3.13492,1.47182 -0.38526,1.86081 -1.23,1.53 0.98624,-1.03308 -0.13927,-0.63468 0.21,-2.66 1.32794,-1.57498 -0.45926,2.64484 -0.16,0.91 2.6233,0.96097 4.13335,0.11602 3.37,-2.84 0.79338,3.42473 1.47119,-1.33923 0.41,-2.62 -1.87251,-2.69814 3.43281,4.63678 0.61,1.88 -0.17524,-1.86428 -2.40863,-4.47443 -3.57,-4.33 1.03484,0.94048 3.60622,3.89063 3.42,3.98 -1.62305,-2.06657 -0.32429,-5.77444 1.17,-1.93 1.20953,3.74103 0.54148,1.93354 -0.56,-0.74 -1.91347,-3.12527 0.23151,-0.68563 1.58,0.83 1.94021,2.71285 -0.29754,2.49742 -0.61,0.22 1.07388,4.03212 -0.50089,1.41187 0.71,2.75 -1.46027,2.04873 -2.6593,4.97157 -0.15,1.67 2.05402,-2.05169 1.93233,-3.18746 0.46,-0.31 2.21277,-0.66915 1.72555,-4.22155 -0.21,-4.29 -2.37839,-2.80358 2.56436,-0.8824 1.84,-0.17 -0.96639,-0.92562 -4.27164,-3.05817 -3.26,-3.55 1.91544,1.42733 5.47956,3.7228 1.68,1.19 -1.3805,-1.82416 -6.50742,-2.55869 -2.14,-1.1 3.69722,0.48853 2.02052,2.18237 -0.77,0.75 -2.91993,-0.93025 -4.49358,-1.44981 -4.18,-2.54 -3.14211,-2.9132 2.70632,-2.53966 4.18,-1.01 3.50552,1.56528 1.36003,1.17292 -1.17,0.57 -2.41027,-1.39894 -6.53031,-0.57159 -7.85,-2.23 4.67371,0.55268 8.36222,4.18891 13.15,4.24 -0.83961,-1.21677 -4.60791,-1.95985 -4.18,-2.67 1.92057,1.3263 2.75015,2.97743 5.25,3.64 -0.69897,-1.08048 -4.56091,-4.16432 -1.73,-1.62 2.39806,1.96975 2.93336,2.38508 0.1,0.13 -1.68383,-0.70054 -5.49709,-4.58195 -1.53,-3.24 1.36492,0.41702 4.6326,1.51751 4.64,1.88 -1.1476,-0.34615 -6.65862,-1.49961 -3.16,-1.22 -0.31898,2.50113 5.81737,-0.0336 3.98,2.14 -2.35134,2.32329 0.89433,0.64226 1.27,-1.31 0.2506,1.95263 0.42373,2.6924 1.94,-0.13 3.21795,-1.79925 0.29889,0.47913 -1.68,0.61 -1.88014,0.9074 4.38517,-0.19974 3.72,-0.18 -1.34505,1.09313 -3.91796,3.53609 -4.74,2.5 2.54819,-1.31686 6.13404,-2.77311 8.31,-2.8 -4.57237,-2.2691 -10.34668,-0.86442 -15.2,-2.28 -3.66944,-0.23098 3.21191,-1.24512 4.29,-1.97 2.70421,-1.23751 5.57077,-1.36559 1.53,0.22 -2.00977,0.24059 -5.16412,1.46872 -1.48,0.27 0.94766,0.72039 -1.12512,4.28677 1.84,1.48 2.07026,-2.45863 2.13529,-1.40998 0.66,0.97 -1.54195,3.99804 1.42886,-1.66774 2.4,-1.71 -0.32439,3.65763 -0.80881,3.03208 0.3,0.13 -0.57951,-1.03141 -2.43502,1.68864 -3.01,2.28"
           id="path3120"
           inkscape:connector-curvature="0" />
        <path
           style="fill:none;stroke:#ffffff;stroke-width:2.25999998999999985;stroke-linecap:round;stroke-linejoin:round;stroke-miterlimit:10;stroke-opacity:1;stroke-dasharray:none"
           d="m 354.72,405.31 c -0.34146,2.36005 -2.29437,4.9189 -1.22,2.23 -0.98833,1.51887 -1.3751,0.76367 -2.65,3.72 1.52088,-0.30782 3.32627,-4.45684 1.12,-1.62 -1.27509,4.74826 0.56707,-2.77712 -1.63,-0.44 -1.29451,1.58422 2.65126,-1.41053 3.26,-2.27 2.44107,-1.74141 4.95713,-3.40413 5.41,-6.39 1.92663,-2.43961 -1.27117,-2.21951 -2.76,-1.36 -0.43154,-2.63851 -0.68388,-3.45495 -1.12,-0.83 -1.78849,-0.98954 -4.38375,-4.01202 -2.4,-1.35 1.19819,1.1726 4.04621,3.77627 0.77,2.1 -0.51019,-0.28756 -0.88098,-1.3218 -0.41,-1.75"
           id="path3122"
           inkscape:connector-curvature="0" />
        <path
           style="fill:none;stroke:#ffffff;stroke-width:2.25999998999999985;stroke-linecap:round;stroke-linejoin:round;stroke-miterlimit:10;stroke-opacity:1;stroke-dasharray:none"
           d="m 250.68,372.67 c -2.21192,-1.31844 -1.12114,4.12072 -0.92,4.51 -0.20172,-2.79706 0.27944,-5.36003 1.02,-7.97"
           id="path3124"
           inkscape:connector-curvature="0" />
        <path
           style="fill:none;stroke:#ffffff;stroke-width:2.25999998999999985;stroke-linecap:round;stroke-linejoin:round;stroke-miterlimit:10;stroke-opacity:1;stroke-dasharray:none"
           d="m 240.02,373.41 c -0.0897,1.25021 0.0128,5.61399 -0.81,7.62"
           id="path3126"
           inkscape:connector-curvature="0" />
        <path
           style="fill:none;stroke:#ffffff;stroke-width:2.25999998999999985;stroke-linecap:round;stroke-linejoin:round;stroke-miterlimit:10;stroke-opacity:1;stroke-dasharray:none"
           d="m 232.37,377.22 c 1.21675,2.21893 3.36871,4.27806 3.47,7"
           id="path3128"
           inkscape:connector-curvature="0" />
        <path
           style="fill:none;stroke:#ffffff;stroke-width:5.67000008000000033;stroke-linecap:round;stroke-linejoin:round;stroke-miterlimit:10;stroke-opacity:1;stroke-dasharray:none"
           d="m 257.26,459.03 c -1.54356,-0.66505 -2.91116,4.55878 -3.77,6.3 -1.67327,3.33719 0.99322,4.36487 1.78,0.7 1.017,-2.87194 1.82999,-5.75793 3.16,-8.53 -1.43081,3.70849 -3.33923,7.36339 -4.53,11.16 2.73741,-2.74591 3.62728,-6.93019 5.71,-10.2 -0.85417,3.91756 -5.17704,7.68397 -4.85,11.33 3.01818,-3.03754 3.22069,-7.87276 5.61,-11.33 -0.50362,2.88285 -4.73882,6.78231 -4.23,9.37 2.50149,-3.375 5.2654,-8.43868 7.5,-10.99 -1.38372,2.57889 -4.97071,5.7824 -5,8.14 3.50648,-2.27178 5.55668,-6.62959 7.55,-10.19 -2.04005,3.34567 -5.32666,8.38815 -6.84,10.67 2.19465,-2.96678 5.78961,-5.59035 6.73,-9.14 -1.72148,-0.0791 -5.26143,0.545 -5.35,-1.84 -0.47583,1.79685 -2.87007,3.42854 -4.08,5.6 1.07801,-1.58423 4.0662,-5.67692 2.45,-6.43 -1.45161,1.10929 -5.30982,7.06405 -4.13,6.13 1.63426,-3.09262 2.66664,-6.55132 3.92,-9.76 -0.6763,4.26932 -4.33715,8.11101 -4.13,12.42 1.27409,-3.20194 3.31551,-7.4235 3.01,-10.5 0.0385,-4.42644 -1.64466,0.41821 -2.14,2.41 -0.83817,3.80088 0.62161,1.7879 1.43,-0.66 0.98894,-1.79737 1.62423,-3.85221 1.99,-4.46 0.24706,-0.42824 0.0473,-2.30484 0.97,-1.7"
           id="path3130"
           inkscape:connector-curvature="0" />
        <path
           style="fill:none;stroke:#ffffff;stroke-width:5.67000008000000033;stroke-linecap:round;stroke-linejoin:round;stroke-miterlimit:10;stroke-opacity:1;stroke-dasharray:none"
           d="m 263.64,452.03 c 0.20387,-3.67536 -2.29593,4.85706 -3.32,2.67 0.18332,-3.93778 5.8876,-6.61866 5.15,-1.05 -1.18291,3.72315 -3.30372,-0.5869 -0.61,-2.23 1.03422,-2.01385 4.39419,-2.60135 3.21,0.44 -0.21694,1.7772 -3.82962,3.15658 -3.11,3.76 2.31673,-0.14076 5.87834,-1.74496 6.63,-3.06 -1.53212,0.82671 -5.63688,2.6515 -2.65,0.04 2.1315,-1.41425 3.47197,-2.75271 -0.05,-2.45 -3.18895,-1.05316 3.55079,1.60588 3.16,1.05 -1.28499,0.70057 -6.20908,1.44191 -5.4,1.31 2.89467,-0.90838 7.35793,-1.29453 9.38,-2.05 -1.84797,-0.50701 -5.81991,1.45048 -5.76,1.66 5.573,-1.54003 12.2979,-3.94889 17.29,0.26 3.43261,1.08158 6.97121,2.72616 10.4,4.16 -0.57623,1.52033 3.52163,0.47967 3.83,3.02 1.96739,-0.82015 4.76811,2.49116 5.04,4.72 2.77355,5.76121 1.18878,13.20414 -2.34,18.55 1.75913,-0.55587 3.40509,-3.68709 3.57,-5.56"
           id="path3132"
           inkscape:connector-curvature="0" />
        <path
           style="fill:none;stroke:#ffffff;stroke-width:5.67000008000000033;stroke-linecap:round;stroke-linejoin:round;stroke-miterlimit:10;stroke-opacity:1;stroke-dasharray:none"
           d="m 289.65,453.08 c -2.37181,-1.95563 2.39157,2.5892 4.03,2.71 3.33025,0.59963 6.2617,5.1264 7.14,6.35 2.38755,0.69602 3.06138,4.8659 3.72,7.35 0.89946,6.68152 0.16655,13.93963 -4.44,18.85 -0.0632,0.53367 -1.81895,1.83792 -0.92,0.53"
           id="path3134"
           inkscape:connector-curvature="0" />
        <path
           style="fill:none;stroke:#ffffff;stroke-width:5.67000008000000033;stroke-linecap:round;stroke-linejoin:round;stroke-miterlimit:10;stroke-opacity:1;stroke-dasharray:none"
           d="m 304.44,483.4 c -1.02582,1.74966 2.3978,-2.00953 3.31,-2.89 1.80949,-2.78524 3.43981,-6.54625 3.27,-9.8 -1.65064,-1.121 -1.09638,-5.34461 -3.27,-5.6 0.91652,4.32076 0.57415,9.3741 -1.27,13.35 -2.57914,5.58928 -5.72906,11.34898 -11.68,13.91 5.52179,1.52818 9.8952,-4.705 12.03,-9.06 -1.28461,2.99487 -5.19694,5.4199 -7.24,7.09 2.18502,-0.47624 4.88154,-3.94217 5.1,-4.94 -2.93701,4.3732 -7.63347,9.37121 -12.24,10.32 1.91662,-1.12239 4.61776,-4.45758 5.46,-4.9 -2.69913,3.60718 -7.20832,3.76871 -11.27,3.76 2.56609,0.24376 7.00384,-0.49328 8.11,-1.57 -2.51228,-0.0697 -6.0422,1.96761 -7.96,0.7"
           id="path3136"
           inkscape:connector-curvature="0" />
        <path
           style="fill:none;stroke:#ffffff;stroke-width:5.67000008000000033;stroke-linecap:round;stroke-linejoin:round;stroke-miterlimit:10;stroke-opacity:1;stroke-dasharray:none"
           d="m 291.79,494.16 c -2.1639,-0.44729 -5.75281,0.96853 -6.94,0.13 1.7253,0.36268 5.32099,1.16253 5.92,1.1 -3.6277,1.98019 -7.03465,0.0847 -10.05,-1.84 1.59943,0.41691 7.39335,0.29958 9.08,0.66 -3.20419,2.1182 -7.33118,2.85118 -10.3,-0.18 -1.33757,-0.14526 -5.39831,-3.79422 -3.11,-2.36 2.2004,0.62628 4.93525,2.01456 1.07,1.79 -3.52206,-0.29191 -5.76774,-4.4909 -6.63,-7.61 -0.43915,-2.38966 1.30504,2.70934 2.5,3.24 1.38769,1.6656 -3.22922,-0.92404 -2.86,-2.63 -1.01823,-2.0078 -0.24018,-4.05188 -0.1,-6.12 -0.87698,2.51995 1.37523,7.52598 2.04,7.26 -2.59487,-2.51114 -3.0615,-6.39242 -1.33,-9.45 -1.33441,2.95779 0.40982,6.21222 0.77,8.88 -3.33888,-1.31277 -5.27909,-6.90636 -3.27,-8.84 -0.14087,1.88141 -0.24231,5.68092 0.26,6.43 -0.51425,-4.30369 1.97445,-8.01959 3.57,-11.76 -0.93259,1.65654 -2.66303,5.45561 -2.6,5.95 1.43466,-2.56003 2.09117,-6.29567 4.74,-7.79 -1.41472,0.89988 -3.96894,4.93068 -3.62,4.64 1.06099,-3.28078 5.17485,-6.52196 7.55,-5.82 2.23052,-0.19323 4.57537,0.58254 1.07,-0.48 -2.8135,-0.82268 2.00189,0.5772 2.8,1.44 2.23454,0.95104 5.29258,2.61652 3.78,5.56"
           id="path3138"
           inkscape:connector-curvature="0" />
        <path
           style="fill:none;stroke:#ffffff;stroke-width:5.67000008000000033;stroke-linecap:round;stroke-linejoin:round;stroke-miterlimit:10;stroke-opacity:1;stroke-dasharray:none"
           d="m 259.97,536.07 c 0.53815,2.37245 -1.92878,3.25711 -0.31,0.05 -0.39081,-0.53602 -1.04687,3.54584 -1.07,4.98 -0.4787,-2.34842 2.73681,-6.1808 3.87,-9.01 2.7215,-2.02311 0.92366,-1.53056 -1.02,-1 -0.86146,-1.5066 -1.06517,-5.32367 -2.14,-5.34 0.3254,2.32558 1.33249,8.51662 1.12,8.66 -0.55525,-3.00518 -2.82378,-8.10784 -3.92,-9.32 -1.48992,-5.17305 1.30386,2.42698 1.48,4.25 0.1823,1.52285 3.05983,7.95931 1.07,3.89 -1.72093,-2.14505 -2.51114,-6.86481 -3.47,-8.14 0.6845,2.81477 1.70291,7.50648 2.4,9.19 -0.5205,-8.64229 -4.83718,-17.23497 -3.06,-25.99 l 0.2,-0.3 0.26,-0.13"
           id="path3140"
           inkscape:connector-curvature="0" />
        <path
           style="fill:none;stroke:#ffffff;stroke-width:5.67000008000000033;stroke-linecap:round;stroke-linejoin:round;stroke-miterlimit:10;stroke-opacity:1;stroke-dasharray:none"
           d="m 256.7,521.55 c 0.14857,-4.23099 -0.64569,-2.56457 0.77,0.74 0.31923,1.35969 4.22012,8.14534 2.9,4.55 -1.94903,-3.78157 -4.70717,-10.06681 -5.71,-12.64 2.06741,3.71016 3.85664,7.7704 6.07,11.33 -1.94301,-6.9573 -5.20095,-13.48593 -8.01,-20.08 1.46475,4.62701 1.96431,9.79736 4.08,14.13 0.0898,-4.39413 -0.14026,-10.5475 -2.24,-13.65 -1.40005,6.81596 -0.0259,14.04644 1.43,20.69 -0.24346,-5.10671 -1.75786,-10.22364 -1.79,-15.4 -0.45439,-2.43712 -0.487,-6.15301 -0.61,-7.91 -0.18708,5.2241 -0.31927,10.80974 1.48,15.7 -1.63711,-4.90506 -2.95252,-12.11581 -3.11,-16.1 -0.30553,5.40031 1.43691,12.63891 2.75,16.67 -1.72312,-4.32662 -2.36163,-10.82841 -2.8,-14.31 -0.58529,5.15538 0.26827,11.80742 1.27,15.93 -0.49111,-3.77516 -1.31981,-7.56058 -1.43,-11.38 0.49216,4.84805 0.0975,11.14844 1.69,15.01 -1.90354,-3.92773 -0.42807,-9.02763 -1.84,-13.17"
           id="path3142"
           inkscape:connector-curvature="0" />
        <path
           style="fill:none;stroke:#ffffff;stroke-width:5.67000008000000033;stroke-linecap:round;stroke-linejoin:round;stroke-miterlimit:10;stroke-opacity:1;stroke-dasharray:none"
           d="m 253.23,518.31 c -0.92799,-1.96821 -1.32406,-5.7631 -2.09,-6.78 0.23994,4.4899 1.60084,8.65447 2.3,13.08"
           id="path3144"
           inkscape:connector-curvature="0" />
        <path
           style="fill:none;stroke:#ffffff;stroke-width:5.67000008000000033;stroke-linecap:round;stroke-linejoin:round;stroke-miterlimit:10;stroke-opacity:1;stroke-dasharray:none"
           d="m 252.77,505.54 c -0.89725,-2.85879 -1.14506,-9.16162 -1.17,-10.33 -0.20071,3.42448 0.12404,8.18715 1.07,10.5 0.61296,-3.7529 0.27925,-3.96675 0.46,-7.53446 0,-4.63518 0,-9.27036 0,-13.90554 0.79453,6.90888 0.98266,14.09645 1.79,20.96 0.0195,-4.8901 -1.40438,-11.77601 -1.48,-15.49 -0.0752,3.8769 0.15591,9.0511 -0.11,12.12 -0.24233,-9.51892 0.0332,-19.04034 1.43,-28.35 -0.75352,1.44675 -1.67163,7.57678 -0.86,3.15 0.54302,-3.42841 1.50584,-6.76537 2.6,-10.02 -1.279,2.72582 -0.036,4.60735 0.76,0.79 1.22377,-5.21795 -0.8538,-0.97968 -1.22,2.01 -0.84601,1.72942 -0.70453,11.04825 -0.72,5.25 0.27748,-1.97747 0.0409,-6.44235 -1.48,-2.53 -2.33574,8.53406 -0.0648,17.21888 -0.61,25.81 -1.91326,-4.12671 -1.30043,-10.48142 -1.42,-14 -0.11331,3.95223 -0.4717,10.38374 0,12.9 -0.82604,-9.59777 0.72233,-19.08751 1.78,-28.48 -0.56803,3.75389 -0.91292,7.56508 -0.82,11.42 l 0,-0.3 0,-0.35"
           id="path3146"
           inkscape:connector-curvature="0" />
        <path
           style="fill:none;stroke:#ffffff;stroke-width:5.67000008000000033;stroke-linecap:round;stroke-linejoin:round;stroke-miterlimit:10;stroke-opacity:1;stroke-dasharray:none"
           d="m 289.85,676.25 c -3.43821,-0.0145 -0.94566,2.22054 1.33,1.7 3.80995,0.45888 0.0518,-0.0834 -1.69,-0.3 -1.70568,0.005 -5.35909,-2.49583 -1.98,-0.66 3.73382,2.35809 9.71453,1.95046 11.62,6.08 0.17043,-0.92745 -2.83472,-1.42876 -4.18,-2.76 -3.43218,-0.83473 3.31839,1.97954 4.64,2.54 2.38741,0.24943 3.42631,2.06288 4.08,3.81 1.67797,0.58158 -2.28224,-2.3939 -2.04,-3.9 -2.31196,-4.97965 -2.82757,-10.51251 -2.9,-15.92 -0.10115,3.59514 1.41603,9.57087 2.39,11.68 0.18503,-1.50311 -0.83299,-7.17455 -0.76,-5.73 -0.1,3.031 1.65478,7.64024 1.99,9.49 -2.95773,-7.0972 -2.14317,-15.19153 -2.25,-22.88 -0.45331,3.96674 -0.50171,11.96962 -0.46,13.91 -0.009,-5.00283 0.18983,-9.99275 0.11,-15 -3.03589,4.86639 -2.70068,11.53439 -3.37,17.02 -2.41826,-0.2248 -4.60619,-2.75842 -2.55,-5.21 1.23082,-3.1393 2.29043,-3.67635 0.15,-0.44 -1.75098,2.62931 -0.55663,2.74061 0.72,0 1.98396,-5.49033 3.19535,-11.35988 4.38,-17.02 -1.77874,3.03452 -2.06728,6.73444 -2.96,10.07 3.39684,-5.12755 3.88766,-11.69307 5.61,-17.5 -2.74973,6.3591 -5.08275,13.15539 -5.86,20.03 1.8648,-5.92806 3.59816,-12.39146 4.44,-18.63 -1.31029,4.0493 -2.78863,9.8671 -2.96,13.21 2.79373,-6.42189 3.07297,-13.53833 4.89,-20.21 -1.00925,6.12701 -2.59714,12.27038 -3.16,18.46 2.61798,-5.68748 3.74113,-12.6683 4.49,-19.03 -2.66741,5.63745 -3.40858,12.12528 -4.9,18.15 1.50647,-7.58549 1.99533,-17.21544 5.87,-23.23 1.6689,-3.62595 1.67923,-7.16265 -0.21,-1.75 -0.77541,3.05808 -3.30963,9.12174 -3.16,10.64 2.80693,-5.34942 3.55753,-11.52411 4.59,-17.37 -0.77921,5.09569 -3.4139,9.86427 -4.23,14.92 4.93897,-3.49067 6.1794,-10.82581 7.4,-16.54 -2.7129,6.42531 -5.77378,12.91582 -7.4,19.69 -0.40322,-1.17724 1.42392,-6.75485 -0.2,-3.94 -1.77346,3.61393 -1.78392,9.07699 -2.6,12.12 0.45069,-7.28632 2.72354,-14.28196 4.94,-21.18 -0.7502,3.63546 -2.75469,8.65668 -2.55,11.55 2.28707,-7.39917 3.30232,-15.44198 5.71,-22.79 -2.2501,4.07846 -2.83232,11.56781 -3.77,14.52 1.98458,-6.41343 2.96117,-13.27441 4.03,-19.82 -3.07292,7.8823 -3.88903,16.64152 -5.81,24.85 1.16207,-3.0435 2.0883,-9.1158 3.11,-13.34 1.56252,-5.40447 0.41034,-3.5196 -0.41,0.88 -0.46442,2.71552 -2.08441,8.12024 -1.02,9.31 4.64464,-9.41403 3.94949,-20.44791 7.95,-30.1 -1.98481,8.74777 -6.11703,17.24399 -6.12,26.39 1.41461,-8.65324 4.22188,-17.31497 4.65,-26.08"
           id="path3148"
           inkscape:connector-curvature="0" />
        <path
           style="fill:none;stroke:#ffffff;stroke-width:5.67000008000000033;stroke-linecap:round;stroke-linejoin:round;stroke-miterlimit:10;stroke-opacity:1;stroke-dasharray:none"
           d="m 307.29,614.91 c -1.4803,2.91074 -2.12273,8.79156 -2.85,10.72 0.0591,-3.49639 1.22124,-8.22826 1.17,-10.98 -2.53051,4.42909 -3.12375,13.10553 -3.98,15.92 0.8125,-6.52072 3.88952,-12.58106 5.1,-18.99 -2.44579,6.12183 -3.45729,12.86057 -4.84,19.17 0.54757,-7.46019 2.57045,-14.91402 5.3,-21.88 -3.61307,5.1391 -5.36917,12.94219 -5.4,18.2 0.79709,-4.21863 0.86931,-9.98965 3.31,-13.17 -1.6564,5.00036 -2.31282,12.30734 -3.21,16.19 1.32813,-9.7223 5.50087,-18.60625 10.2,-27.12 1.84213,-4.08961 0.97195,-4.5563 -0.72,-0.09 -1.46038,3.02294 -3.43403,8.49286 -3.97,10.32 2.30163,-5.82949 4.09183,-13.82473 5.4,-18.81 -3.20174,6.02027 -5.47958,12.56728 -7.6,18.99 2.19745,-4.61577 3.51999,-11.36838 6.68,-14.57 -1.74933,3.80187 -4.81131,9.35682 -4.48,12.82 5.08969,-7.67783 7.12039,-17.01846 10.45,-25.51 -2.69326,5.97122 -4.73952,12.38008 -6.27,18.73 2.98044,-9.27443 6.59669,-18.69236 7.54,-28.44 -3.80653,7.4396 -6.6155,15.47224 -10.25,23.01 4.5194,-5.24831 8.07979,-11.71304 10.87,-18.07 -1.46732,3.83134 1.80446,-2.05308 1.99,-3.5 1.09583,-1.58493 2.38865,-7.14628 0.35,-3.01 -1.20876,2.69446 -1.75966,4.15672 -0.15,0.61 1.11296,-3.45094 2.70631,-6.85296 3.77,-10.33"
           id="path3150"
           inkscape:connector-curvature="0" />
        <path
           style="fill:none;stroke:#ffffff;stroke-width:5.67000008000000033;stroke-linecap:round;stroke-linejoin:round;stroke-miterlimit:10;stroke-opacity:1;stroke-dasharray:none"
           d="m 325.14,576.06 c -0.91698,-1.16835 2.08839,-5.86812 -0.35,-2.58 -0.92448,1.03451 -3.23771,6.28193 -1.69,2.58 0.6914,-1.95495 3.11241,-7.5705 0.92,-7.66 -0.97576,2.03319 -3.17451,6.07219 -3.57,6.79 1.71627,-2.37758 3.46533,-8.34036 4.03,-9.28 -0.91563,2.18974 -3.78221,5.20186 -3.37,6.96 3.55958,-4.82495 6.40156,-10.36326 8.93,-15.67 -1.71336,3.27627 -3.30012,6.70657 -4.34,10.24 3.4112,-4.60527 4.73438,-10.68909 7.25,-15.84 -4.51243,5.93504 -7.63827,15.03386 -8.78,21.14 4.54662,-7.75162 7.87108,-17.94461 11.02,-25.25 -5.38967,8.00527 -7.45148,17.69137 -10.71,26.6 5.88383,-10.43548 10.4234,-21.8856 15.91,-32.64 -4.96224,5.62228 -6.96712,13.53943 -10.25,20.3 2.43939,-2.66806 4.45247,-8.62232 6.84,-12.46 1.87782,-3.37762 4.47781,-9.09083 5.81,-11.2 -3.03758,5.43075 -6.27357,10.86193 -9.79,15.92 4.63218,-5.20301 7.87735,-11.5073 11.17,-17.59 -1.92379,1.94908 -5.17558,5.38335 -4.95,7.44 2.74518,-3.44493 5.92959,-8.73468 7.45,-11.86 -2.48546,2.92554 2.42098,-2.14448 2.8,-3.67 1.21398,-2.15956 2.19151,-2.26563 3.16,-4.86 1.9537,-4.71861 5.97115,-7.8532 8.21,-12.46"
           id="path3152"
           inkscape:connector-curvature="0" />
        <path
           style="fill:none;stroke:#ffffff;stroke-width:5.67000008000000033;stroke-linecap:round;stroke-linejoin:round;stroke-miterlimit:10;stroke-opacity:1;stroke-dasharray:none"
           d="m 360.33,513.06 c 2.22656,-2.54511 4.5033,-5.06538 6.63,-7.7"
           id="path3154"
           inkscape:connector-curvature="0" />
        <path
           style="fill:none;stroke:#ffffff;stroke-width:5.67000008000000033;stroke-linecap:round;stroke-linejoin:round;stroke-miterlimit:10;stroke-opacity:1;stroke-dasharray:none"
           d="m 363.7,508.77 c 2.62822,-2.01878 4.47733,-4.82451 6.48,-7.43 l 0.2,0.65"
           id="path3156"
           inkscape:connector-curvature="0" />
        <path
           style="fill:none;stroke:#ffffff;stroke-width:5.67000008000000033;stroke-linecap:round;stroke-linejoin:round;stroke-miterlimit:10;stroke-opacity:1;stroke-dasharray:none"
           d="m 371.55,500.42 c 1.40693,-0.5421 2.42952,-1.83593 3.78,-2.54"
           id="path3158"
           inkscape:connector-curvature="0" />
        <path
           style="fill:none;stroke:#ffffff;stroke-width:5.67000008000000033;stroke-linecap:round;stroke-linejoin:round;stroke-miterlimit:10;stroke-opacity:1;stroke-dasharray:none"
           d="m 313,602.62 c 1.11341,-1.32291 2.97118,-5.31872 2.66,-5.25 -1.49358,6.23794 -3.83964,12.44658 -4.64,18.81 2.53185,-2.48451 2.58964,-8.10562 3.77,-11.86 2.33568,-7.08855 2.41587,-14.79411 4.18,-21.83 1.75838,-3.34724 -0.86234,4.77867 -0.92,6.17 -0.22424,2.83244 -2.75329,7.46284 -1.99,9.1 3.32959,-7.2496 3.49801,-15.58628 6.33,-23.01 -1.88162,1.37066 -3.05818,6.55907 -3.37,9.67 -1.57775,10.69399 -4.39607,21.31461 -4.13,32.2 -0.91032,2.88352 -0.91333,2.36273 -2.24,0.13 -1.515,-3.80118 -1.70343,1.23282 -1.07,2.97 0.11037,1.46149 0.61522,6.75923 -1.18,3.28 -0.98827,-1.39093 -1.19632,-8.80452 -0.46,-4.11 0.98199,2.69335 2.08228,10.6471 1.59,9.8 1.03559,-4.60872 0.68497,-10.19282 4.18,-13.82 2.32713,0.90158 1.29393,5.69511 1.32,6.91 1.152,-2.6871 3.21336,-7.24861 3.98,-8.8 -0.96391,2.85706 -3.91026,7.20073 -4.74,8.75 2.60443,-3.1856 5.00609,-6.97332 6.48,-10.8 -2.6087,2.86299 -4.62561,6.56732 -6.12,10.1 3.52326,-3.00995 6.93587,-9.05151 8.16,-12.29 -2.04837,4.21364 -7.0694,8.62214 -7.96,12.38 3.23132,-3.1107 8.24429,-9.8553 8.62,-12.47 -2.2071,3.02484 -4.27858,6.21352 -6.22,9.41 4.7562,-4.59009 8.28836,-10.38505 12.9,-15.18 -3.77292,0.66607 -6.07556,5.54813 -8.93,8.14 2.97947,-3.8121 5.80428,-7.95063 9.95,-10.64 -3.96225,2.60523 -8.45091,8.30178 -11.22,10.33 1.4682,-1.50408 3.38506,-4.4322 0.41,-1.84 2.5744,-0.13738 5.12068,-5.01686 7.95,-6.43 2.47106,-2.75767 8.0637,-3.89073 10,-5.25 -2.84194,0.0946 -6.94727,2.59859 -7.96,4.11 2.04896,-0.4199 6.31806,-3.45983 2.15,-1.13 -1.62709,0.95925 -6.14801,5.90815 -4.59,5.68 5.44607,-5.21066 10.2413,-11.5602 17.34,-14.26 -1.39238,0.55725 -7.05779,2.93828 -5.05,2.76 3.04229,-0.32149 1.21035,-0.37974 -0.72,1.18 -1.90281,1.79709 2.7506,-0.6948 3.62,-1.23 2.6046,-1.46879 5.32255,-1.81891 8.32,-1.79 -2.32632,0.28291 -5.76765,1.61035 -7.25,2.06 2.10686,0.0349 6.39932,-0.9072 1.99,-0.31 -1.3112,0.82592 -6.1471,0.61716 -5.96,1.27 4.32898,-1.91864 10.92915,-1.47135 13.97,-2.58 -1.58883,0.19733 -6.78141,0.59555 -2.65,0.57 2.57085,0.13183 6.51196,-1.42437 8.06,-1.45"
           id="path3160"
           inkscape:connector-curvature="0" />
        <path
           style="fill:none;stroke:#ffffff;stroke-width:5.67000008000000033;stroke-linecap:round;stroke-linejoin:round;stroke-miterlimit:10;stroke-opacity:1;stroke-dasharray:none"
           d="m 316.78,629.65 c -0.56048,-5.72621 -1.56444,0.74134 -1.12,3.33 0.11519,3.7785 0.0692,9.61436 2.19,11.99 -1.09075,-6.52265 -1.7852,-13.22449 -2.65,-19.78 -0.22243,6.19194 1.48922,12.36938 2.8,18.38 -1.73212,-5.27453 -4.04674,-12.59829 -6.01,-16.63 0.51404,8.63883 5.83154,16.17201 7.08,24.54 -0.43461,-5.88343 -3.47538,-12.69592 -5.5,-17.36 3.06387,8.77196 6.03538,17.92727 11.06,25.81 0.95794,-3.67631 -2.44878,-8.59584 -3.62,-12.6 -1.25885,-3.27221 -3.3494,-8.07043 -3.72,-10.59 4.10527,6.31063 5.44949,14.30993 9.33,20.52 -4.82086,-8.44343 -8.58483,-17.55884 -10.71,-27.08 3.19192,12.84783 7.1228,25.89918 13.57,37.53 -3.14838,-4.02602 -5.21833,-8.83222 -6.73,-13.69 3.76789,5.85659 7.52498,12.02886 11.01,18.11 2.60781,-0.1011 -1.50862,-6.30334 -2.29,-8.31 -0.52272,-1.49667 -6.11501,-8.78527 -3.83,-5.56 4.13716,4.81617 6.07425,11.5838 11.07,15.54 -2.44727,-3.48095 -7.12695,-8.30433 -8.62,-11.12 2.53773,2.3931 5.57295,6.47307 7.14,8.53 -1.70776,-4.46514 -4.80104,-8.34494 -8.11,-11.76 4.27219,6.08048 8.1602,12.80103 12.85,18.63 0.0828,1.42028 1.65172,2.80143 2.4,4.25"
           id="path3162"
           inkscape:connector-curvature="0" />
        <path
           style="fill:none;stroke:#ffffff;stroke-width:5.67000008000000033;stroke-linecap:round;stroke-linejoin:round;stroke-miterlimit:10;stroke-opacity:1;stroke-dasharray:none"
           d="m 340.65,672.05 c -1.43482,-0.83763 -3.2547,-4.41896 -1.23,-1.45 2.74661,2.87991 5.476,5.83984 8.62,8.14 -4.05344,-3.67921 -9.02669,-6.59454 -12.34,-11.2 -1.25874,-0.93206 -4.27414,-4.68344 -1.48,-1.97 3.04447,3.43014 7.02562,6.7109 8.62,10.98 -2.25366,3.60401 -6.47594,-1.33045 -7.9,-3.67 -1.43974,-2.37887 -3.92443,-4.85959 -0.97,-1.1 2.64181,3.02919 6.13191,7.46562 7.7,10.15 -5.22727,-4.15189 -9.73951,-9.27545 -13.57,-14.61 4.11516,2.44211 5.66433,8.3596 9.64,11.46 2.63964,2.81482 6.36945,7.66822 10.71,6.17"
           id="path3164"
           inkscape:connector-curvature="0" />
        <path
           style="fill:none;stroke:#ffffff;stroke-width:5.67000008000000033;stroke-linecap:round;stroke-linejoin:round;stroke-miterlimit:10;stroke-opacity:1;stroke-dasharray:none"
           d="m 347.38,681.98 c -3.73114,1.70989 3.16787,3.41372 4.23,5.38 4.30255,2.27162 -1.55125,-2.77223 -3.31,-3.02 -5.2429,-1.38176 0.1046,-1.0056 2.6,0.09 1.33663,0.74279 8.71172,2.26628 4.38,0.39 -1.07395,-0.68645 -7.33236,-1.81263 -4.38,-0.35 2.15091,1.36022 6.11618,1.6042 7.65,2.23 -4.84359,-2.19962 -11.59797,1.59045 -15.45,-2.19 3.03702,-2.59948 7.61299,0.095 9.33,3.37 1.89757,1.6623 -2.63028,-1.28118 -3.72,-1.44 -3.91585,-1.73864 2.74062,2.42847 4.13,3.28 0.58773,1.37837 -3.31629,0.43461 -3.88,-1.09 -2.50647,-1.77358 -1.58542,-0.68074 -3.16,-3.15 -1.55959,-2.53636 -0.96854,-5.33913 2.34,-3.59 1.60746,0.21427 7.31349,4.44957 5.72,2.84 -1.30385,-0.95224 -4.94485,-3.49341 -5.26,-2.58 1.46575,1.46391 3.52371,3.1347 5.71,3.2"
           id="path3166"
           inkscape:connector-curvature="0" />
        <path
           style="fill:none;stroke:#ffffff;stroke-width:5.67000008000000033;stroke-linecap:round;stroke-linejoin:round;stroke-miterlimit:10;stroke-opacity:1;stroke-dasharray:none"
           d="m 363.09,686.75 c -3.12271,-0.65428 -5.10864,2.74232 -0.56,1 1.88801,-0.93524 8.80428,-2.3825 4.13,0.22 -4.1152,1.73467 -8.54118,2.55509 -12.55,1.09 5.54784,-0.72129 12.89603,-0.79483 17.14,-3.06 -3.55963,1.91827 -7.74714,1.89672 -11.73,2.1 5.54333,0.54382 10.74417,-1.7931 15.76,-3.72 -1.81942,0.56436 -5.32845,2.38979 -6.33,2.58 1.95614,-0.68842 5.64334,-2.37154 6.48,-2.62 -1.68329,1.09339 -7.08984,2.56408 -6.27,2.71 2.10429,-1.27022 5.62052,-1.81957 7.19,-2.45 -2.0291,0.46976 -5.02282,2.14505 -5.87,3.15 2.92655,-0.94084 4.28675,-1.30038 0.46,-1.14 -1.51264,0.03 -5.88459,2.85735 -3.21,0"
           id="path3168"
           inkscape:connector-curvature="0" />
        <path
           style="fill:none;stroke:#ffffff;stroke-width:5.67000008000000033;stroke-linecap:round;stroke-linejoin:round;stroke-miterlimit:10;stroke-opacity:1;stroke-dasharray:none"
           d="m 364.11,688.15 c -3.41478,0.83899 2.95862,1.69445 4.23,0.87 3.85131,-0.6188 -3.33307,1.01207 -4.84,0.92 0.66491,-1.05558 5.18888,-1.24446 7.24,-2.19 2.79993,-0.73632 6.82337,-3.02115 8.72,-3.45 -2.03488,0.77785 -5.33923,3.383 -6.07,3.93 0.88715,-1.21188 4.96602,-2.92605 4.18,-2.88 -3.25532,2.43083 -7.15248,2.35629 -10.86,3.15 6.78313,-0.0276 12.68882,-4.17498 19.28,-5.3 -6.13144,0.24561 -11.33129,4.93803 -17.45,5.25 -1.10529,0.31745 3.67096,-0.47636 4.95,-0.87 7.39224,-1.78888 13.81622,-5.95083 20.45,-9.54 -6.49945,2.9232 -12.69121,6.90055 -19.68,8.05 7.6054,-0.65764 14.12651,-5.64384 21.11,-8.49 1.33915,-0.57745 6.07663,-3.69984 2.35,-2.01 -2.83531,0.89087 -5.39852,3.05444 -7.65,3.98 -4.68043,0.50518 -9.03292,2.74961 -13.57,3.72 4.30244,-1.20024 8.23367,-3.77516 12.29,-5.69 0.30728,0.0938 -3.218,1.46553 -4.49,2.58 -4.99587,3.04106 -10.74703,6.13925 -17.03,5.25 -4.11701,0.0848 -8.35493,-0.60811 -11.94,-1.88 l -0.2,-0.22 -0.1,-0.26"
           id="path3170"
           inkscape:connector-curvature="0" />
        <path
           style="fill:none;stroke:#ffffff;stroke-width:5.67000008000000033;stroke-linecap:round;stroke-linejoin:round;stroke-miterlimit:10;stroke-opacity:1;stroke-dasharray:none"
           d="m 264.1,578.38 c -1.87775,1.59162 -1.0008,7.00749 -2.15,10.02 -0.0379,1.71034 -3.94091,9.09965 -1.98,6.65 2.36875,-5.66549 2.12274,-14.05246 5.35,-18.33 -0.66846,6.13916 -4.54299,11.93795 -4.18,18.06 2.77499,-8.02528 0.29852,-19.27127 8.06,-25.19 -0.722,1.39124 -2.72737,6.28308 -1.13,2.53 0.2814,-2.05049 3.30276,-6.20336 3.01,-6.47 -0.50013,1.1255 -3.62777,6.48014 -1.68,4.37 1.74376,-4.27685 2.96392,-8.83316 4.34,-13.25 -0.61531,2.26389 -2.5997,7.3129 -3.17,7.57 3.03949,-5.11966 5.02191,-10.44467 7.91,-15.32 0.84271,-0.41745 2.85052,-4.23196 1.22,0.13 -0.84989,2.92505 -3.94869,7.07967 -3.67,9.24 2.13311,-5.84763 5.69598,-11.028 9.23,-16.06 -2.5074,1.93137 3.21898,-2.70491 2.96,-4.59 0.88597,-3.52924 5.08658,-4.5907 6.68,-7.88 -2.50178,3.44851 -4.38503,7.3125 -5.97,11.24"
           id="path3172"
           inkscape:connector-curvature="0" />
        <path
           style="fill:none;stroke:#ffffff;stroke-width:5.67000008000000033;stroke-linecap:round;stroke-linejoin:round;stroke-miterlimit:10;stroke-opacity:1;stroke-dasharray:none"
           d="m 315.15,509.43 c 2.84479,0.26925 -1.9114,5.29348 -2.86,2.67 -1.54094,-2.59457 3.66554,-3.68011 2.25,-1.14 -3.69112,1.04526 -2.77125,-4.33054 0.61,-2.75 2.89921,0.50377 -3.14446,4.45233 -2.71,1.44 0.1999,-0.36547 2.57715,-0.99687 1.13,-0.13"
           id="path3174"
           inkscape:connector-curvature="0" />
        <path
           style="fill:none;stroke:#ffffff;stroke-width:5.67000008000000033;stroke-linecap:round;stroke-linejoin:round;stroke-miterlimit:10;stroke-opacity:1;stroke-dasharray:none"
           d="m 313.51,509.04 c -2.10473,2.93192 -0.17355,-1.97705 -1.73,-1.36 -3.22691,0.5721 1.68658,4.6372 2.7,2.49"
           id="path3176"
           inkscape:connector-curvature="0" />
        <path
           style="fill:none;stroke:#ffffff;stroke-width:5.67000008000000033;stroke-linecap:round;stroke-linejoin:round;stroke-miterlimit:10;stroke-opacity:1;stroke-dasharray:none"
           d="m 261.85,589.62 c -1.21057,0.98416 -1.93945,7.33576 -0.92,3.33 1.2852,-3.24005 1.33099,-5.17051 -0.3,-1.14 -1.87578,3.04127 -0.81999,6.08972 0.76,8.27 1.76293,-2.09662 -1.47968,-7.14722 -0.76,-7.61 -0.94252,1.61431 -2.62605,6.31414 -2.3,6.34 1.07741,-2.96714 1.52182,-7.99027 2.6,-10.02 -0.50679,1.30471 -2.3893,5.484 -1.48,4.94 0.83737,-1.91854 2.10805,-7.39022 1.59,-7.34 -0.69744,3.86028 -2.88995,8.96715 -0.46,12.42 2.66436,1.82981 6.29888,-2.67068 8.46,-1.14 -2.37618,1.5722 -5.57857,2.79264 -8.51,2.1 2.5137,2.66285 6.60627,-0.53968 9.64,-0.74 -3.42449,-0.20492 -6.73002,2.04528 -10.05,0.22 -3.19053,-0.99926 -1.58822,1.13308 0.56,1.27 2.11451,0.3996 5.627,-1.16963 6.43,-1.71 -2.07213,1.91164 -5.23306,-1.69417 -6.58,-0.22 3.20194,3.76947 8.98834,1.78974 11.22,-1.92 -0.97999,1.60481 -4.4588,2.58302 -5.15,2.66 1.92086,-0.4582 6.17034,-2.85766 5.76,-3.36 -2.63642,1.76754 -7.19467,2.65941 -6.94,-1.89 -0.3989,-2.22582 -0.42789,-7.82553 0.36,-7.96 -0.28885,3.18458 -0.74421,7.92049 2.91,8.97 -0.92563,-5.62242 -1.80107,-13.05768 -0.92,-17.8 0.21557,3.55487 -0.77972,8.73177 -1.23,11.11 -1.01901,-4.01627 0.30895,-8.24115 2.15,-11.86"
           id="path3178"
           inkscape:connector-curvature="0" />
        <path
           style="fill:none;stroke:#ffffff;stroke-width:5.67000008000000033;stroke-linecap:round;stroke-linejoin:round;stroke-miterlimit:10;stroke-opacity:1;stroke-dasharray:none"
           d="m 419.24,561.58 c -2.46798,-0.50047 -6.25583,3.59618 -6.58,6.26 0.85898,-0.82063 3.51563,-4.40054 3.01,-3.94 -1.88343,2.82213 -4.20121,5.43134 -6.02,8.27 0.89811,-1.02253 4.93343,-6.63296 2.96,-3.81 -2.41473,3.9456 -5.13159,7.92458 -6.48,12.34 0.97746,-2.28273 3.3062,-4.29018 3.93,-6.43 -3.39053,3.54577 -4.46423,10.5504 -5.82,14.21 1.50188,-1.97047 -0.2793,2.95188 -0.51,3.99 -1.00976,3.82379 -0.91994,1.16307 -0.1,0.17 -0.95857,2.77587 -1.72621,7.92568 -2.55,9.41 0.90574,-3.71169 0.35096,-0.0822 0.16,1.79 -0.25282,2.55263 -0.58364,8.11562 -0.82,8.66 -0.43942,3.67181 -1.03866,7.28887 -1.12,11.03"
           id="path3180"
           inkscape:connector-curvature="0" />
        <path
           style="fill:none;stroke:#ffffff;stroke-width:5.67000008000000033;stroke-linecap:round;stroke-linejoin:round;stroke-miterlimit:10;stroke-opacity:1;stroke-dasharray:none"
           d="m 401.29,616.62 c 2.20225,-1.56569 6.62138,-5.0634 9.64,-7.44 3.93345,-3.70952 4.07675,-4.08988 0.2,-0.09 -3.2896,3.2987 -6.85457,6.62942 -8.77,10.94 4.08234,-3.08185 6.50909,-8.38928 10.81,-11.38 -3.84618,3.90286 -7.9137,7.92111 -10.61,12.69 5.95086,-6.37126 12.05982,-13.07303 18.67,-18.72 -3.79816,1.50757 -6.43314,6.03152 -10.25,8.09 1.52853,1.661 4.63691,-4.22233 6.68,-5.47 3.13501,-3.21514 6.18138,-6.5064 9.23,-9.8 -5.80426,5.00841 -11.31405,10.52045 -17.7,14.79 5.42998,-3.79408 10.62062,-10.45837 14.64,-14.4 -6.28516,5.15136 -12.12523,10.90885 -17.75,16.76 2.55045,0.0752 5.16277,-5.09994 7.69479,-7.15664 2.30383,-2.78804 4.73888,-5.54028 7.65521,-7.71336 -3.57777,3.79152 -7.86278,7.07801 -10.81,11.46 7.30761,-6.65576 13.67093,-14.41709 20.96,-21.09 -3.58895,3.34124 -8.48892,7.60632 -10.4,11.46 2.3922,-1.58975 5.7483,-5.35055 6.07,-7.26 -1.2132,0.62728 -6.129,5.79307 -4.24,3.68 1.23434,-1.75586 4.27704,-6.57444 4.24,-6.65 -1.02869,2.26445 -4.50488,4.52187 -4.6,6.43 2.73972,-3.0403 5.67164,-5.62664 8.27,-8.84"
           id="path3182"
           inkscape:connector-curvature="0" />
        <path
           style="fill:none;stroke:#ffffff;stroke-width:5.67000008000000033;stroke-linecap:round;stroke-linejoin:round;stroke-miterlimit:10;stroke-opacity:1;stroke-dasharray:none"
           d="m 421.84,560.88 c -0.0872,-1.29505 0.76835,5.74587 1.63,7.35 0.77147,3.17285 3.45703,9.18857 3.67,10.76 -2.80965,-4.94235 -3.71842,-11.55406 -8.56,-15.05 2.50144,6.25166 6.89368,11.78678 9.12,18.25 0.61571,-4.19232 -3.12541,-7.60265 -3.11,-11.77 0.86904,5.32569 3.59028,10.5935 4.54,15.97 -0.82628,-2.3438 -1.55786,-6.53505 -2.5,-7.84 -0.009,3.57145 0.77357,8.68897 1.33,11.25 -0.33599,-7.08104 -3.08038,-13.92102 -4.74,-20.74 1.77147,5.72359 2.52811,12.18043 5.1,17.76 -0.80298,-7.1947 -4.71708,-13.67895 -7.25,-20.38 3.8289,4.65259 5.02284,11.1027 8.78,15.92 -0.95498,-6.55655 -2.57123,-13.7873 -6.53,-19.25 -2.5634,-0.72616 -3.49049,-4.53896 -5.41,-5.51 -1.13484,2.48365 -2.00164,6.01294 -3.06,7.87 -0.98209,0.52762 -2.66865,2.91964 -2.34,4.2"
           id="path3184"
           inkscape:connector-curvature="0" />
        <path
           style="fill:none;stroke:#ffffff;stroke-width:5.67000008000000033;stroke-linecap:round;stroke-linejoin:round;stroke-miterlimit:10;stroke-opacity:1;stroke-dasharray:none"
           d="m 429.85,592.03 c -0.71895,-3.9831 1.06578,5.5569 1.63,7.09 0.46005,2.00771 1.45133,9.37894 1.48,3.54 -1.27461,-7.34194 -3.03666,-14.69654 -3.22,-22.14 1.05754,7.60188 4.1469,16.91407 5.56,23.28 -0.49783,-5.93261 -3.49382,-11.53452 -4.48,-17.37 0.79546,7.23243 3.98745,14.20235 3.46,21.65"
           id="path3186"
           inkscape:connector-curvature="0" />
        <path
           style="fill:none;stroke:#ffffff;stroke-width:5.67000008000000033;stroke-linecap:round;stroke-linejoin:round;stroke-miterlimit:10;stroke-opacity:1;stroke-dasharray:none"
           d="m 435.25,608.96 c -0.42831,-1.49008 -0.48706,-7.92888 -0.61,-3.28 1.42609,6.47675 1.35214,13.36342 2.75,19.73 -0.57543,-6.25023 -1.27928,-14.609 -3.31,-19.43 1.53271,7.70775 3.48443,15.51254 3.93,23.37 0.0969,-4.203 -0.59377,-8.35617 -0.51,-12.56 0.33208,6.20397 0.87386,12.42106 0.91,18.64 0.61141,-3.98333 -0.22154,0.93789 0.46,2.4 -0.40263,0.56006 -2.13752,3.63742 -2.75,5.25 -1.22002,1.81665 2.68296,-3.37798 3.37,-4.63 1.3452,-2.41034 0.48421,-7.00079 -0.11,-8.53 -0.54943,1.62549 -0.0438,5.09946 0.51,5.64 -0.003,-5.52522 -1.91604,-10.95162 -2.6,-16.36"
           id="path3188"
           inkscape:connector-curvature="0" />
        <path
           style="fill:none;stroke:#ffffff;stroke-width:5.67000008000000033;stroke-linecap:round;stroke-linejoin:round;stroke-miterlimit:10;stroke-opacity:1;stroke-dasharray:none"
           d="m 399.71,621.56 c 0.54366,1.17423 -0.84741,6.87594 -0.46,9.68446 -0.30344,3.49979 -0.80054,7.02181 -1.23,10.48554 0.19595,-5.07716 0.87272,-10.12959 1.89,-15.1 -0.0765,7.14681 -2.42288,14.11584 -3.01,21.18 2.78798,-5.701 3.11072,-12.63142 4.28,-18.9 -2.13309,6.27369 -1.25261,13.26983 -2.6,19.82 -3.8e-4,4.03544 -0.3161,6.72752 -0.1,1.18 0.11182,-9.48456 1.374,-19.26386 4.23,-28.13 0.58273,-4.391 -2.03288,3.05951 -2.07814,4.45088 -2.40552,7.74559 -0.45123,17.10677 -2.76186,24.19912 -0.13587,-3.07739 -0.26014,-6.19274 -0.05,-9.27 -1.51712,5.57108 -1.50667,11.60602 -2.55,17.32 0,-3.95631 0,0.11901 0,1.93 1.03292,1.99528 0.91391,-5.13605 1.17,-6.65 0.49548,-3.91026 -0.30133,3.98546 0,5.34 -0.24688,1.61806 0.17463,9.06031 1.33,6.78 -0.3215,-3.23938 0.7107,-8.17725 -0.26,-10.42 0.0161,4.14581 0.6442,8.24933 2.14,12.12 -1.68494,-3.68912 -0.36758,1.30385 0.87,2.5 0.85799,1.64004 2.01482,1.03826 -0.56,0.96"
           id="path3190"
           inkscape:connector-curvature="0" />
        <path
           style="fill:none;stroke:#ffffff;stroke-width:5.67000008000000033;stroke-linecap:round;stroke-linejoin:round;stroke-miterlimit:10;stroke-opacity:1;stroke-dasharray:none"
           d="m 398.79,673.1 c -2.88348,0.69377 -2.78679,-2.1682 -0.61,0.39 0.96818,2.97983 -0.33004,-0.20505 2.75,0.22 2.98854,-1.40006 -1.66377,1.7765 -2.7,2.05 -4.22832,-1.27314 -1.71789,-5.60449 -1.79,-8.79 0.92599,-3.84378 -0.80032,-1.63981 -1.43,0.88 -0.33532,3.37354 -1.18163,3.75865 -0.3,0.08 1.1448,-4.64994 -0.73072,2.2555 -1.02,3.9 -1.08449,4.81816 0.4589,0.73611 0.76,-1.88 0.51114,-1.16471 0.89149,-7.17413 0.26,-5.17 -0.50729,2.51261 -1.11489,6.63377 -1.02,8.32 1.33108,-4.43092 0.97494,-9.49018 2.9,-13.74"
           id="path3192"
           inkscape:connector-curvature="0" />
        <path
           style="fill:none;stroke:#ffffff;stroke-width:5.67000008000000033;stroke-linecap:round;stroke-linejoin:round;stroke-miterlimit:10;stroke-opacity:1;stroke-dasharray:none"
           d="m 291.28,673.75 c -2.04432,1.75628 -6.00776,-0.20721 -8.52,-0.92 -2.98122,-2.38457 -5.56638,-4.86835 -7.85,-7.83 -3.54178,-3.66161 -6.09084,-8.65135 -10.3,-12.16 -3.10978,-5.11313 -6.49718,-10.46356 -7.96,-16.41 -0.51116,-1.37242 -1.36635,-5.83851 -1.89,-8.35 -1.08361,-10.34668 -2.75918,-21.70066 1.94,-31.2 1.08215,-3.18707 2.40368,-6.55932 2.75,-10.14"
           id="path3194"
           inkscape:connector-curvature="0" />
        <path
           style="fill:none;stroke:#ffffff;stroke-width:5.67000008000000033;stroke-linecap:round;stroke-linejoin:round;stroke-miterlimit:10;stroke-opacity:1;stroke-dasharray:none"
           d="m 267.61,564.73 c 1.03168,-6.23456 -2.97606,-10.95196 -5.76,-15.88 -1.65461,-4.89249 -3.53533,-9.92334 -3.16,-15.18"
           id="path3196"
           inkscape:connector-curvature="0" />
        <path
           style="fill:none;stroke:#ffffff;stroke-width:2.25999998999999985;stroke-linecap:round;stroke-linejoin:round;stroke-miterlimit:10;stroke-opacity:1;stroke-dasharray:none"
           d="m 364.21,419.74 c -1.4675,1.47436 -3.35668,4.53301 -6.38,4.07 1.29679,0.22436 6.76072,-3.07932 3.57,-1 -3.32307,1.85734 -7.84728,2.03702 -10.04,4.98 4.05247,-2.32417 9.47155,-6.48813 13.56,-5.42 -4.24435,-0.65495 0.58264,2.63529 -0.56,0.39 -2.14995,-2.40691 -1.27767,-3.47999 0.31,-0.3 1.11557,2.39466 2.96444,3.66213 0.97,0.61 -1.76977,-1.70479 -1.10812,-2.87172 0.81,-1.01 2.69678,2.59706 -5.36262,-3.56274 -2.34,0.27 0.80169,1.92977 3.91551,3.5286 4.69,4.15 -3.28244,0.15645 -7.30392,1.00771 -10.25,-0.39 3.53625,-1.29657 8.2563,-1.70794 11.83,-0.44 -3.50504,1.68704 -8.7859,0.0229 -12.9,0.83 2.47579,-0.0637 6.639,0.0919 8,0.35 -3.68554,-0.6468 -7.81145,1.21541 -10.91,1.49 1.10535,-0.30875 6.76717,-1.00145 3.21,-0.44 -1.29768,0.52755 -5.99224,2.59348 -5.4,1.23 3.26742,-2.39672 2.00335,-0.62307 -0.97,-0.35 -1.20734,0.13001 -6.53717,3.46884 -4.18,2.1 2.05528,-2.34131 3.66808,-1.50391 0.3,-0.31 -3.04271,1.11902 4.03283,-3.90515 1.63,-0.83 -0.96994,1.21247 -7.07414,4.87758 -3.36,2.54 1.51267,-1.04696 5.84103,-6.09864 2.14,-2.85 -0.89937,1.31679 -6.86747,5.46673 -3.47,2.37 1.29632,-1.32111 5.33119,-4.90403 1.48,-2.32 -2.33056,1.52381 -4.3152,2.93394 -0.56,1.05 3.21441,-2.74286 1.90761,1.74579 -0.92,1.22 1.17028,-1.88102 2.91175,-3.64968 0.51,-0.83 -0.62046,1.30766 -4.80705,4.89129 -2.29,1.97 0.99838,-1.10917 4.323,-4.16042 1.58,-1.62 -2.68925,1.87948 -2.09905,2.95771 -0.1,-0.13 1.3491,-2.02222 3.73333,-5.20961 1.22,-1.49 -2.59878,3.69448 2.12637,-0.18933 3.37,-1.31 3.10679,-2.08305 6.94066,-2.88437 10.65,-2.8 -2.66811,0.23032 -6.99415,1.51705 -8,3.28 3.74826,-1.42696 9.50023,-2.426 12.39,-2.67 -1.86358,-0.24202 -5.64207,0.54812 -6.22,-0.48 2.86957,-0.56518 7.76328,-1.2427 9.64,-0.87 -3.74785,0.0402 -7.44815,0.56756 -11.12,1 3.08947,0.97446 7.20894,1.04727 10.45,0.4"
           id="path3198"
           inkscape:connector-curvature="0" />
        <path
           style="fill:none;stroke:#ffffff;stroke-width:2.25999998999999985;stroke-linecap:round;stroke-linejoin:round;stroke-miterlimit:10;stroke-opacity:1;stroke-dasharray:none"
           d="m 363.24,427.93 c 1.40729,-0.0394 5.28365,-0.30606 5.1,-0.35 -4.30193,0.52579 -8.53727,3.71696 -12.8,2.88 2.29466,-2.29798 7.19989,-1.42477 10.45,-2.58 4.15099,0.0518 1.58406,-0.76916 -1.12,-1.18 -2.87464,-0.76041 -4.05876,-1.16669 -0.41,-0.52 2.07457,0.60307 5.95666,2.28466 6.99,1.79 -2.12108,-0.37364 -4.90382,-2.27439 -6.32,-2.67 3.20454,1.69903 6.92789,0.76991 10.15,1.84"
           id="path3200"
           inkscape:connector-curvature="0" />
        <path
           style="fill:none;stroke:#ffffff;stroke-width:2.25999998999999985;stroke-linecap:round;stroke-linejoin:round;stroke-miterlimit:10;stroke-opacity:1;stroke-dasharray:none"
           d="m 374.66,427.93 c -3.69195,-0.0553 -0.95393,-0.56675 1.08,0.65 5.13901,0.90743 9.94195,2.7846 15.14,3.28 0.84094,0.22061 1.54314,0.85358 2.4,1.05"
           id="path3202"
           inkscape:connector-curvature="0" />
        <path
           style="fill:none;stroke:#ffffff;stroke-width:2.25999998999999985;stroke-linecap:round;stroke-linejoin:round;stroke-miterlimit:10;stroke-opacity:1;stroke-dasharray:none"
           d="m 238.09,422.06 c -2.72057,-3.21763 -1.19494,-1.77268 1.22,0.31 2.63026,2.70752 5.6044,5.21619 7.6,8.44 -1.69706,-4.62477 -8.17089,-8.42877 -9.84,-11.33 4.31112,4.42461 8.88533,10.8397 11.78,15.14 -0.86526,-0.90715 -2.94216,-4.77639 -2.6,-3.68 1.23056,1.86662 5.04767,6.2721 5.35,6.22 -2.7771,-2.63176 -4.72176,-6.15686 -7.5,-8.71 1.99677,5.36727 7.42374,8.63916 11.12,12.82 -3.86505,-2.24465 -8.09038,-7.04097 -10.71,-9.1 3.97824,4.47325 8.28442,8.84276 13.26,12.21 -1.60432,-2.12028 -5.12016,-5.41968 -7.04,-5.34 2.23066,2.46174 7.10731,4.33175 9.44,4.37 -2.22615,0.19754 -6.38527,-1.35392 -6.84,-1.79 3.34513,2.13968 7.18717,3.17597 11.12,3.32 -0.35878,0.19232 -0.78401,0.0456 -1.17,0.09"
           id="path3204"
           inkscape:connector-curvature="0" />
        <path
           style="fill:none;stroke:#ffffff;stroke-width:2.25999998999999985;stroke-linecap:round;stroke-linejoin:round;stroke-miterlimit:10;stroke-opacity:1;stroke-dasharray:none"
           d="m 252.72,444.07 c 1.96169,1.85769 2.62836,4.84551 3.22,7.35 -0.2325,-1.91259 -0.42897,-4.98004 -1.59,-5.99 -0.44468,3.46489 1.02875,6.66858 1.48,9.97 -0.51366,-1.92925 -0.78079,-3.95646 -2.19,-5.42"
           id="path3206"
           inkscape:connector-curvature="0" />
        <path
           style="fill:none;stroke:#ffffff;stroke-width:2.25999998999999985;stroke-linecap:round;stroke-linejoin:round;stroke-miterlimit:10;stroke-opacity:1;stroke-dasharray:none"
           d="m 257.26,397.65 c 1.5191,0.12182 6.05569,2.84418 8.47,4.2 11.00038,7.10582 19.4614,17.24953 27.74,27.21 l 0.56,0.48 0.51,0.4"
           id="path3208"
           inkscape:connector-curvature="0" />
        <path
           style="fill:none;stroke:#ffffff;stroke-width:2.25999998999999985;stroke-linecap:round;stroke-linejoin:round;stroke-miterlimit:10;stroke-opacity:1;stroke-dasharray:none"
           d="m 385.37,376.78 c -0.72203,0.42683 -1.41948,-3.02989 -2.29,0.44 0.93082,-2.42811 0.89762,-4.73192 -0.71,-5.99 -1.46999,-4.76757 -6.99137,-5.29139 -11.43,-4.42 -6.27038,0.88463 -13.35153,1.00768 -18.26,5.03 -3.91284,1.60301 -5.91102,4.9811 -9.13,2.1 -1.86831,-0.11252 -1.05772,-0.57725 -3.51,-1.84 -0.36277,-0.0135 -0.81372,-0.71405 -0.77,0.35"
           id="path3210"
           inkscape:connector-curvature="0" />
        <path
           style="fill:none;stroke:#ffffff;stroke-width:2.25999998999999985;stroke-linecap:round;stroke-linejoin:round;stroke-miterlimit:10;stroke-opacity:1;stroke-dasharray:none"
           d="m 351.66,380.55 c -1.0468,0.13271 -5.75102,2.50714 -2.75,0.56 3.64024,-1.23611 1.477,-1.06832 -0.82,0.18 1.94118,-0.56619 7.60494,-3.0268 9.69,-3.41 -3.16975,0.87615 -2.00006,1.15589 0.61,0.52 6.7724,-1.11304 13.30849,-1.78415 20.1,-1.92 2.51094,0.87353 6.865,2.78129 7.75,4.5 -0.95345,-0.63664 0.74197,3.19064 0.46,4.47 0.79066,3.85794 1.25259,8.68893 -1.22,11.98 0,-0.40667 0,-0.81333 0,-1.22"
           id="path3212"
           inkscape:connector-curvature="0" />
        <path
           style="fill:none;stroke:#ffffff;stroke-width:2.25999998999999985;stroke-linecap:round;stroke-linejoin:round;stroke-miterlimit:10;stroke-opacity:1;stroke-dasharray:none"
           d="m 387.01,395.68 c -1.65791,1.73109 -3.26734,5.62884 -5.41,7.48"
           id="path3214"
           inkscape:connector-curvature="0" />
        <path
           style="fill:none;stroke:#ffffff;stroke-width:2.25999998999999985;stroke-linecap:round;stroke-linejoin:round;stroke-miterlimit:10;stroke-opacity:1;stroke-dasharray:none"
           d="m 255.99,485.28 c -2.41527,-1.06148 -1.20615,6.62476 -0.72,2.49 -0.009,-2.45489 -0.088,-5.74714 0.31,-1.53 0.43179,3.96087 1.02443,-0.83145 0.25,-2.27 -2.34182,0.45954 -1.62528,-5.33487 -2.79782,-7.30096 -0.22109,-1.34849 -1.29106,-8.77273 -1.63218,-5.42904 0.19799,1.5537 -0.59867,8.96671 -0.56,4.28 -0.12133,-2.52775 0.50238,-8.95632 -0.46,-3.23 -0.57901,1.95398 0.33984,6.96614 0.46,2.45 0.26741,-2.47452 0.1423,-5.02722 0.71,-7.44 0.41846,4.55946 -2.22305,9.88271 -0.41,13.96 0.61405,-1.31363 0.88441,-6.21374 -0.25,-7.35 -0.50742,2.25615 -0.72529,6.31495 -0.26,7.87 0.57294,-2.12 0.16836,-5.70047 -0.1,-7.04 -0.12258,4.34831 2.66676,2.13599 2.5,-1.23 0.61006,-3.29115 2.06911,-8.56724 3.37,-10.54 0.47248,1.75885 -1.49748,6.78939 -0.97,6.08 0.43551,-1.7537 2.29394,-8.33229 1.47,-7.04 -0.25744,0.65467 -0.95292,2.29583 -0.05,0.78"
           id="path3216"
           inkscape:connector-curvature="0" />
        <path
           style="fill:none;stroke:#ffffff;stroke-width:2.25999998999999985;stroke-linecap:round;stroke-linejoin:round;stroke-miterlimit:10;stroke-opacity:1;stroke-dasharray:none"
           d="m 271.64,478.02 c 0.24569,-3.73882 -3.14483,2.34906 -2.44,-1.62 0.45776,-3.50889 -0.0299,-2.59811 -0.31,0.35 -0.30984,5.2064 2.72492,9.58908 4.08,14.04 -2.85831,1.20885 -3.41077,-4.41696 -3.11,-3.93 -0.71484,1.89122 4.77776,4.64451 1.58,3.54 -1.84922,-0.94214 -2.3606,-4.62931 -2.86,-5.16 -1.008,2.19605 1.97647,4.19279 2.5,5.16 -2.51395,-1.98864 -2.39542,-2.09292 -0.91,0.7 1.14909,1.18638 2.75753,1.06283 3.97,2.06"
           id="path3218"
           inkscape:connector-curvature="0" />
        <path
           style="fill:none;stroke:#ffffff;stroke-width:2.25999998999999985;stroke-linecap:round;stroke-linejoin:round;stroke-miterlimit:10;stroke-opacity:1;stroke-dasharray:none"
           d="m 323.92,581.79 c -0.72162,2.7246 -0.096,7.11865 -0.31,1.71 -0.11148,-2.90367 0.32766,-6.38737 -0.51,-1.66 -0.25073,4.87653 -0.0367,0.35029 0.16,-2.1 0.27106,-3.92398 0.91708,-10.51746 0.56,-12.95 -0.78524,1.48526 -2.31818,6.08654 -1.28,2.18 1.08686,-2.47507 1.37202,-5.35052 -0.3,-1.44 -1.25794,2.603 0.81043,-5.50343 -1.48,-1.84 -1.09832,2.01453 -2.13063,6.06412 -0.46,2.1 0.30092,0.11503 1.87598,-4.28553 2.34,-4.68 0.58756,1.4165 -1.87616,6.70871 -0.91,3.15 0.60514,-0.98003 1.60404,-10.75197 0.97,-5.56"
           id="path3220"
           inkscape:connector-curvature="0" />
        <path
           style="fill:none;stroke:#ffffff;stroke-width:2.25999998999999985;stroke-linecap:round;stroke-linejoin:round;stroke-miterlimit:10;stroke-opacity:1;stroke-dasharray:none"
           d="m 259.61,601.52 c -0.0424,1.61895 4.43303,0.85837 6.27,1.05 3.65809,-1.40507 -2.59552,-1.35631 -3.52,0.4 -1.11345,1.63658 -7.07611,1.38102 -2.96,0.61 3.43369,-0.0477 7.91315,-2.96245 7.81,-5.47 -1.20938,2.63574 -2.52716,6.75446 -6.17,5.91 2.82465,0.9758 8.21539,-1.13753 6.83,-4.38 -2.0883,1.41779 -3.89116,3.56133 -6.58,4.2 3.51798,-0.1134 8.84359,-2.9003 8.36,-6.65 -2.58581,1.28159 -3.54283,5.8151 -5.66,6.26 1.77322,0.0254 3.99048,-1.61235 3.88,-3.5"
           id="path3222"
           inkscape:connector-curvature="0" />
      </g>
    </g>
  </g>
</svg>
